<mxfile host="65bd71144e">
    <diagram name="Page-1" id="puIWuVyxz79bkE_QcTQ8">
        <mxGraphModel dx="1224" dy="640" grid="0" gridSize="10" guides="1" tooltips="1" connect="1" arrows="1" fold="1" page="0" pageScale="1" pageWidth="850" pageHeight="1100" background="#ffffff" math="0" shadow="0">
            <root>
                <mxCell id="0"/>
                <mxCell id="1" parent="0"/>
                <UserObject label="" tags="Background" id="uhzGf2CPpyKdWITM7k95-174">
                    <mxCell style="vsdxID=1656;fillColor=#0078d4;gradientColor=none;fillOpacity=10;shape=stencil(nZBLDoAgDERP0z3SIyjew0SURgSD+Lu9kMZoXLhwN9O+tukAlrNpJg1SzDH4QW/URgNYgZTkjA4UkwJUgGXng+6DX1zLfmoymdXo17xh5zmRJ6Q42BWCfc2oJfdAr+Yv+AP9Cb7OJ3H/2JG1HNGz/84klThPVCc=);strokeColor=none;spacingTop=-3;spacingBottom=-3;spacingLeft=-3;spacingRight=-3;points=[[0.47,0,0]];labelBackgroundColor=none;rounded=0;html=1;whiteSpace=wrap;" parent="1" vertex="1">
                        <mxGeometry x="329" y="383" width="1058" height="440" as="geometry"/>
                    </mxCell>
                </UserObject>
                <UserObject label="" tags="Background" id="uhzGf2CPpyKdWITM7k95-175">
                    <mxCell style="vsdxID=1657;fillColor=none;gradientColor=none;strokeColor=none;spacingTop=-3;spacingBottom=-3;spacingLeft=-3;spacingRight=-3;points=[];labelBackgroundColor=none;rounded=0;html=1;whiteSpace=wrap;" parent="1" vertex="1">
                        <mxGeometry x="397" y="417" width="89" height="63" as="geometry"/>
                    </mxCell>
                </UserObject>
                <mxCell id="uhzGf2CPpyKdWITM7k95-176" style="vsdxID=1658;fillColor=#6cc6b9;gradientColor=none;shape=stencil(xVRLDoIwED1Nl5DSEoQ14j0aKdBYKZlWwdtbLCqfsFCj7ubzOi9vPkU01RVrOCJYG1AH3orcVIhuESGirjgIYy1EM0TTQgEvQZ3q3PkN65G9dVTnvkLn3lEf0/4RwRcXwDdv57BS1CNsEvnJZh3MYG8zsCgMAzj0SewiAyTAeFKN+nE0ADzWCe2BMswIVY/JsGRQcs+SeYVk5SSlW86bUThY1zLnttqC8CM1y+48OL4vZzHGO/e7ata68wMt86VI4heVJBMlKxv+j6FMRmKN51EWQkp30+P8/IhtyH0ANLsC);strokeColor=none;strokeWidth=3;spacingTop=-3;spacingBottom=-3;spacingLeft=-3;spacingRight=-3;points=[];labelBackgroundColor=none;rounded=0;html=1;whiteSpace=wrap;" parent="uhzGf2CPpyKdWITM7k95-175" vertex="1">
                    <mxGeometry width="89" height="63" as="geometry"/>
                </mxCell>
                <mxCell id="uhzGf2CPpyKdWITM7k95-177" style="vsdxID=1659;fillColor=#FFFFFF;gradientColor=none;shape=stencil(xVTJDoIwEP2aHmlKi4aeXf6jkQKNlZKhCv69xYKyiAdN9DbL67y8WYrYpspFKREllQVzlLVKbI7YFlGqilyCss5CbIfYJjUgMzDnIvF+KVpka53Mpa3Q+Hch5qv2ESVXHyB3b++xWhUDLI8xeQMWcHAZmBWGDsxwFPlIDyFkVI1hGnaAQDSqCsBYYZUphmREC8hk4MiCVItslKpqKctBOFzWMuXma8zDr9TMu/Pg+IGc6Rh77k/VLHXnB1rG1BTz+Lste73h/xjKaCTOeB5lqrT2Nz3MT4/YhfwHwHY3);strokeColor=none;strokeWidth=3;spacingTop=-3;spacingBottom=-3;spacingLeft=-3;spacingRight=-3;points=[];labelBackgroundColor=none;rounded=0;html=1;whiteSpace=wrap;" parent="uhzGf2CPpyKdWITM7k95-175" vertex="1">
                    <mxGeometry x="36" y="7" width="41" height="23" as="geometry"/>
                </mxCell>
                <mxCell id="uhzGf2CPpyKdWITM7k95-178" style="vsdxID=1660;fillColor=#FFFFFF;gradientColor=none;shape=stencil(vVPRDoIwDPyaPY4gA5Fnxf9YZMDiZKRMwb93uInANBpNeOvaK9drOUS2TUlrhgK/USCPrOWZKhHZoSDgVcmAKx0hkiKyzSWwAuS5ysy7pj2yj07y0n+hM31+3xH4V/NKNl4Y3zN7A6Zw0FWw4NAjxODBNqy8KDQZB/JA+Jaiw7TjDQapqOKymtALCgXDmgznghaTUtMyVjtpO57g1UhLEnnr+CX592rIRM0wvLOfBeTMyYfpfr2Nu5/FTuP8Fv/d5c1iFhDywS86eDot50IYo47rc2fqlHE1SW8=);strokeColor=none;strokeWidth=3;spacingTop=-3;spacingBottom=-3;spacingLeft=-3;spacingRight=-3;points=[];labelBackgroundColor=none;rounded=0;html=1;whiteSpace=wrap;" parent="uhzGf2CPpyKdWITM7k95-175" vertex="1">
                    <mxGeometry x="11" y="7" width="17" height="47" as="geometry"/>
                </mxCell>
                <mxCell id="uhzGf2CPpyKdWITM7k95-179" style="vsdxID=1661;fillColor=#FFFFFF;gradientColor=none;shape=stencil(xVPbEoIgEP0aHnUQsvK5y38wicpE4qx08e+DyAuaPTRTvS1nD3vm7AXRTV2wiiOCaw3qyK8i1QWiW0SIKAsOQpsI0R2im0wBz0Gdy9S9K2aZNjqpi61wc/8WIUnsJ4IbB+DHa++4UpQDbhKHq2iezOBgMtAVXsSOC02HOODJiDD2ivX5gN1EHYDSTAtVDqWwZJDzwEgFmWS5l6qvnFcDOJp3MpZOliFev/PSNqn3Qnwz0950Gt+3Mxliq/2pm7nu/MDL6534cMVmtvsfI/EGYoL+IDMhpbvnYX58wAZyx093dw==);strokeColor=none;strokeWidth=3;spacingTop=-3;spacingBottom=-3;spacingLeft=-3;spacingRight=-3;points=[];labelBackgroundColor=none;rounded=0;html=1;whiteSpace=wrap;" parent="uhzGf2CPpyKdWITM7k95-175" vertex="1">
                    <mxGeometry x="61" y="38" width="17" height="17" as="geometry"/>
                </mxCell>
                <mxCell id="uhzGf2CPpyKdWITM7k95-180" style="vsdxID=1662;fillColor=#FFFFFF;gradientColor=none;shape=stencil(vVPREoIgEPwaHmUQ1PS57D+YRGUicU7K+vswLJXJHpqpt2NvuZ09WMS2Xc1bgSjpDOij6GVhasR2iFLZ1AKksRViOWLbUoOoQJ+bwp1bPjCH6qQvw4Sru8dwGA+XKLk5gDxOe8dVsplxsxjHbJ3M4WA7MJIjnESOC7cnMgIjIyRkMWzqB/wquwC04UbqZi5FFIdKBFYqKBWvFq2uF6KdweG6E186SzBJP3kJPS8MZ3Rhxu4mTRYzXxq/tzPt2tP+8mW85cR4k/zLyvsv8aWPlc/9BxufY2WLKY+lVMrFed7382shl32W3wE=);strokeColor=none;strokeWidth=3;spacingTop=-3;spacingBottom=-3;spacingLeft=-3;spacingRight=-3;points=[];labelBackgroundColor=none;rounded=0;html=1;whiteSpace=wrap;" parent="uhzGf2CPpyKdWITM7k95-175" vertex="1">
                    <mxGeometry x="36" y="38" width="16" height="17" as="geometry"/>
                </mxCell>
                <UserObject label="" tags="Background" id="uhzGf2CPpyKdWITM7k95-181">
                    <mxCell style="vsdxID=1663;fillColor=none;gradientColor=none;strokeColor=none;spacingTop=-3;spacingBottom=-3;spacingLeft=-3;spacingRight=-3;points=[];labelBackgroundColor=none;rounded=0;html=1;whiteSpace=wrap;" parent="1" vertex="1">
                        <mxGeometry x="653" y="539" width="42" height="62" as="geometry"/>
                    </mxCell>
                </UserObject>
                <mxCell id="uhzGf2CPpyKdWITM7k95-182" style="vsdxID=1665;fillColor=none;gradientColor=none;shape=stencil(nZBLDoAgDERP0z3SIyjew0SURgSD+Lu9kC78LFy4m7ZvmmkBy9k0kwYp5hj8oDdqowGsQEpyRgeKSQEqwLLzQffBL67lemoymdXo17xhZ18hRPZIcTzrmmFL7gb/Rj/Ad4AHmsQVvCNr+e77/H1oavGTUJ0=);strokeColor=#3c3c41;strokeWidth=3;spacingTop=-3;spacingBottom=-3;spacingLeft=-3;spacingRight=-3;points=[];labelBackgroundColor=none;rounded=0;html=1;whiteSpace=wrap;" parent="uhzGf2CPpyKdWITM7k95-181" vertex="1">
                    <mxGeometry x="21" width="21" height="62" as="geometry"/>
                </mxCell>
                <UserObject label="" tags="Background" id="uhzGf2CPpyKdWITM7k95-183">
                    <mxCell style="vsdxID=1664;edgeStyle=none;startArrow=none;endArrow=none;startSize=5;endSize=5;strokeWidth=3;strokeColor=#3c3c41;spacingTop=-3;spacingBottom=-3;spacingLeft=-3;spacingRight=-3;verticalAlign=middle;html=1;labelBackgroundColor=none;rounded=0;" parent="uhzGf2CPpyKdWITM7k95-181" edge="1">
                        <mxGeometry relative="1" as="geometry">
                            <mxPoint as="offset"/>
                            <Array as="points"/>
                            <mxPoint y="30.225" as="sourcePoint"/>
                            <mxPoint x="42" y="30.225" as="targetPoint"/>
                        </mxGeometry>
                    </mxCell>
                </UserObject>
                <UserObject label="" tags="Background" id="uhzGf2CPpyKdWITM7k95-184">
                    <mxCell style="vsdxID=1666;fillColor=none;gradientColor=none;strokeColor=none;spacingTop=-3;spacingBottom=-3;spacingLeft=-3;spacingRight=-3;points=[];labelBackgroundColor=none;rounded=0;html=1;whiteSpace=wrap;" parent="1" vertex="1">
                        <mxGeometry x="653" y="655" width="42" height="68" as="geometry"/>
                    </mxCell>
                </UserObject>
                <mxCell id="uhzGf2CPpyKdWITM7k95-185" style="vsdxID=1668;fillColor=none;gradientColor=none;shape=stencil(nZBLDoAgDERP0z3SIyjew0SURgSD+Lu9kC78LFy4m7ZvmmkBy9k0kwYp5hj8oDdqowGsQEpyRgeKSQEqwLLzQffBL67lemoymdXo17xhZ18hRPZIcTzrmmFL7gb/Rj/Ad4AHmsQVvCNr+e77/H1oavGTUJ0=);strokeColor=#3c3c41;strokeWidth=3;spacingTop=-3;spacingBottom=-3;spacingLeft=-3;spacingRight=-3;points=[];labelBackgroundColor=none;rounded=0;html=1;whiteSpace=wrap;" parent="uhzGf2CPpyKdWITM7k95-184" vertex="1">
                    <mxGeometry x="21" width="21" height="68" as="geometry"/>
                </mxCell>
                <UserObject label="" tags="Background" id="uhzGf2CPpyKdWITM7k95-186">
                    <mxCell style="vsdxID=1667;edgeStyle=none;startArrow=none;endArrow=none;startSize=5;endSize=5;strokeWidth=3;strokeColor=#3c3c41;spacingTop=-3;spacingBottom=-3;spacingLeft=-3;spacingRight=-3;verticalAlign=middle;html=1;labelBackgroundColor=none;rounded=0;" parent="uhzGf2CPpyKdWITM7k95-184" edge="1">
                        <mxGeometry relative="1" as="geometry">
                            <mxPoint as="offset"/>
                            <Array as="points"/>
                            <mxPoint y="34" as="sourcePoint"/>
                            <mxPoint x="42" y="34" as="targetPoint"/>
                        </mxGeometry>
                    </mxCell>
                </UserObject>
                <UserObject label="&lt;div style=&quot;font-size: 1px&quot;&gt;&lt;p style=&quot;text-align:left;margin-left:0;margin-right:0;margin-top:0px;margin-bottom:0px;text-indent:0;vertical-align:middle;direction:ltr;&quot;&gt;&lt;font style=&quot;font-size:25.4px;font-family:Segoe UI Semibold;color:#000000;direction:ltr;letter-spacing:0px;line-height:120%;opacity:1&quot;&gt;Dashboards (Azure &lt;/font&gt;&lt;font style=&quot;font-size:25.4px;font-family:Segoe UI Semibold;color:#000000;direction:ltr;letter-spacing:0px;line-height:120%;opacity:1&quot;&gt;P&lt;/font&gt;&lt;font style=&quot;font-size:25.4px;font-family:Segoe UI Semibold;color:#000000;direction:ltr;letter-spacing:0px;line-height:120%;opacity:1&quot;&gt;ortal)&lt;br/&gt;&lt;/font&gt;&lt;/p&gt;&lt;/div&gt;" tags="Background" id="uhzGf2CPpyKdWITM7k95-187">
                    <mxCell style="verticalAlign=middle;align=left;overflow=width;vsdxID=1669;fillColor=none;gradientColor=none;shape=stencil(nZBLDoAgDERP0z3SIyjew0SURgSD+Lu9kMZoXLhwN9O+tukAlrNpJg1SzDH4QW/URgNYgZTkjA4UkwJUgGXng+6DX1zLfmoymdXo17xh5zmRJ6Q42BWCfc2oJfdAr+Yv+AP9Cb7OJ3H/2JG1HNGz/84klThPVCc=);strokeColor=none;points=[];labelBackgroundColor=none;rounded=0;html=1;whiteSpace=wrap;" parent="1" vertex="1">
                        <mxGeometry x="500" y="427" width="333" height="43" as="geometry"/>
                    </mxCell>
                </UserObject>
                <UserObject label="&lt;div style=&quot;font-size: 1px&quot;&gt;&lt;font style=&quot;font-size:25.4px;font-family:Segoe UI Semibold;color:#000000;direction:ltr;letter-spacing:0px;line-height:120%;opacity:1&quot;&gt;Automation&lt;br/&gt;account(s)&lt;br/&gt;&lt;/font&gt;&lt;/div&gt;" tags="Background" id="uhzGf2CPpyKdWITM7k95-188">
                    <mxCell style="verticalAlign=middle;align=center;overflow=width;vsdxID=1670;fillColor=#FFFFFF;gradientColor=none;shape=stencil(nZBLDoAgDERP0z3SIyjew0SURgSD+Lu9kMZoXLhwN9O+tukAlrNpJg1SzDH4QW/URgNYgZTkjA4UkwJUgGXng+6DX1zLfmoymdXo17xh5zmRJ6Q42BWCfc2oJfdAr+Yv+AP9Cb7OJ3H/2JG1HNGz/84klThPVCc=);strokeColor=none;spacingTop=-3;spacingBottom=-3;spacingLeft=-3;spacingRight=-3;points=[];labelBackgroundColor=none;rounded=0;html=1;whiteSpace=wrap;" parent="1" vertex="1">
                        <mxGeometry x="372" y="527" width="281" height="80" as="geometry"/>
                    </mxCell>
                </UserObject>
                <UserObject label="&lt;div style=&quot;font-size: 1px&quot;&gt;&lt;font style=&quot;font-size:25.4px;font-family:Segoe UI Semibold;color:#000000;direction:ltr;letter-spacing:0px;line-height:120%;opacity:1&quot;&gt;Log analytics&lt;br/&gt;workspace&lt;br/&gt;&lt;/font&gt;&lt;/div&gt;" tags="Background" id="uhzGf2CPpyKdWITM7k95-189">
                    <mxCell style="verticalAlign=middle;align=center;overflow=width;vsdxID=1671;fillColor=#FFFFFF;gradientColor=none;shape=stencil(nZBLDoAgDERP0z3SIyjew0SURgSD+Lu9kMZoXLhwN9O+tukAlrNpJg1SzDH4QW/URgNYgZTkjA4UkwJUgGXng+6DX1zLfmoymdXo17xh5zmRJ6Q42BWCfc2oJfdAr+Yv+AP9Cb7OJ3H/2JG1HNGz/84klThPVCc=);strokeColor=none;spacingTop=-3;spacingBottom=-3;spacingLeft=-3;spacingRight=-3;points=[[0,0.5,0]];labelBackgroundColor=none;rounded=0;html=1;whiteSpace=wrap;" parent="1" vertex="1">
                        <mxGeometry x="372" y="648" width="281" height="78" as="geometry"/>
                    </mxCell>
                </UserObject>
                <UserObject label="&lt;div style=&quot;font-size: 1px&quot;&gt;&lt;p style=&quot;text-align:left;margin-left:45;margin-right:0;margin-top:8px;margin-bottom:0px;text-indent:-25.4;vertical-align:middle;direction:ltr;&quot;&gt;&lt;/p&gt;&lt;ul style=&quot;margin: 0;list-style-type: disc&quot;&gt;&lt;font style=&quot;font-size:25.4px;font-family:Segoe UI Semibold;color:#000000;direction:ltr;letter-spacing:0px;line-height:120%;opacity:1&quot;&gt;&lt;li&gt;Change tracking&lt;/li&gt;&lt;li&gt;Inventory management&lt;/li&gt;&lt;li&gt;&lt;span style=&quot;font-size: 25.4px; letter-spacing: 0px; background-color: initial;&quot;&gt;Update management&lt;/span&gt;&lt;br&gt;&lt;/li&gt;&lt;/font&gt;&lt;/ul&gt;&lt;p&gt;&lt;/p&gt;&lt;/div&gt;" tags="Background" id="uhzGf2CPpyKdWITM7k95-190">
                    <mxCell style="verticalAlign=middle;align=left;overflow=width;vsdxID=1672;fillColor=none;gradientColor=none;shape=stencil(nZBLDoAgDERP0z3SIyjew0SURgSD+Lu9kMZoXLhwN9O+tukAlrNpJg1SzDH4QW/URgNYgZTkjA4UkwJUgGXng+6DX1zLfmoymdXo17xh5zmRJ6Q42BWCfc2oJfdAr+Yv+AP9Cb7OJ3H/2JG1HNGz/84klThPVCc=);strokeColor=none;spacingTop=-3;spacingBottom=-3;spacingLeft=-3;spacingRight=-3;points=[];labelBackgroundColor=none;rounded=0;html=1;whiteSpace=wrap;" parent="1" vertex="1">
                        <mxGeometry x="695" y="500" width="333" height="133" as="geometry"/>
                    </mxCell>
                </UserObject>
                <UserObject label="&lt;div style=&quot;font-size: 1px&quot;&gt;&lt;p style=&quot;text-align:left;margin-left:45;margin-right:0;margin-top:8px;margin-bottom:0px;text-indent:-25.4;vertical-align:middle;direction:ltr;&quot;&gt;&lt;/p&gt;&lt;ul style=&quot;margin: 0;list-style-type: disc&quot;&gt;&lt;font style=&quot;font-size:25.4px;font-family:Segoe UI Semibold;color:#000000;direction:ltr;letter-spacing:0px;line-height:120%;opacity:1&quot;&gt;&lt;li&gt;Dashboards&lt;/li&gt;&lt;li&gt;Queries&lt;/li&gt;&lt;li&gt;&lt;span style=&quot;font-size: 25.4px; letter-spacing: 0px; background-color: initial;&quot;&gt;Alerting&lt;/span&gt;&lt;br&gt;&lt;/li&gt;&lt;/font&gt;&lt;/ul&gt;&lt;p&gt;&lt;/p&gt;&lt;/div&gt;" tags="Background" id="uhzGf2CPpyKdWITM7k95-191">
                    <mxCell style="verticalAlign=middle;align=left;overflow=width;vsdxID=1673;fillColor=none;gradientColor=none;shape=stencil(nZBLDoAgDERP0z3SIyjew0SURgSD+Lu9kMZoXLhwN9O+tukAlrNpJg1SzDH4QW/URgNYgZTkjA4UkwJUgGXng+6DX1zLfmoymdXo17xh5zmRJ6Q42BWCfc2oJfdAr+Yv+AP9Cb7OJ3H/2JG1HNGz/84klThPVCc=);strokeColor=none;spacingTop=-3;spacingBottom=-3;spacingLeft=-3;spacingRight=-3;points=[];labelBackgroundColor=none;rounded=0;html=1;whiteSpace=wrap;" parent="1" vertex="1">
                        <mxGeometry x="692" y="622" width="333" height="128" as="geometry"/>
                    </mxCell>
                </UserObject>
                <UserObject label="" tags="Background" id="uhzGf2CPpyKdWITM7k95-192">
                    <mxCell style="vsdxID=1675;fillColor=none;gradientColor=none;points=[];labelBackgroundColor=none;rounded=0;strokeColor=none;html=1;whiteSpace=wrap;" parent="1" vertex="1">
                        <mxGeometry x="300" y="327" width="102" height="98" as="geometry"/>
                    </mxCell>
                </UserObject>
                <mxCell id="uhzGf2CPpyKdWITM7k95-193" style="vsdxID=1676;fillColor=none;gradientColor=none;strokeColor=none;spacingTop=-3;spacingBottom=-3;spacingLeft=-3;spacingRight=-3;points=[];labelBackgroundColor=none;rounded=0;html=1;whiteSpace=wrap;" parent="uhzGf2CPpyKdWITM7k95-192" vertex="1">
                    <mxGeometry width="102" height="98" as="geometry"/>
                </mxCell>
                <mxCell id="uhzGf2CPpyKdWITM7k95-194" style="vsdxID=1677;fillColor=#FFFFFF;gradientColor=none;shape=stencil(vZTdcsIgEIWfJpfZAZbfa6vvwShqpmnikFj17UsKxGBbZ3rjHZw9YeHL7la4Go725CpGhtH37+7S7MZjhW8VY013dL4Zw6rCdYWrfe/dwffnbhf3Jzs5p9VH/zmdcI3foQBGp68YuUWFEvK930S79dsQ89nOQZho97dZ4lFJHoqAojjSMFDZU9trM9S+H+3Y9F2Mx4Sktf7g6pCw3rf2UISGi3OnhUyXV9yefXwSjUEOkqX8SdECdHrllRUH39JWcdAqOTA5ADOZpEgKyvwNR/L54RmORDCmpCOAYEGHBY98HR2mgD7iAfNAh/MSDynRSAJUlGyeF43UP4tGF1w0K6AoYC+smFzzMxFGQfASiTHzlTIVweYfnsnoUDUlGCXA4LPkUt9bMEmGgNFlekEBsUw/3zonXzYz/trNbdP9p/nD4j449k3bxrmzjD8OmiDFIYXrLw==);strokeColor=#ffd965;spacingTop=-3;spacingBottom=-3;spacingLeft=-3;spacingRight=-3;points=[];labelBackgroundColor=none;rounded=0;html=1;whiteSpace=wrap;" parent="uhzGf2CPpyKdWITM7k95-193" vertex="1">
                    <mxGeometry x="4" width="97" height="97" as="geometry"/>
                </mxCell>
                <mxCell id="uhzGf2CPpyKdWITM7k95-195" style="vsdxID=1678;fillColor=#ffe452;gradientColor=none;fillOpacity=23;strokeOpacity=23;shape=stencil(vZTdcsIgEIWfJpfZAZbfa6vvwShqpmnikFj17UsKxGBbZ3rjHZw9YeHL7la4Go725CpGhtH37+7S7MZjhW8VY013dL4Zw6rCdYWrfe/dwffnbhf3Jzs5p9VH/zmdcI3foQBGp68YuUWFEvK930S79dsQ89nOQZho97dZ4lFJHoqAojjSMFDZU9trM9S+H+3Y9F2Mx4Sktf7g6pCw3rf2UISGi3OnhUyXV9yefXwSjUEOkqX8SdECdHrllRUH39JWcdAqOTA5ADOZpEgKyvwNR/L54RmORDCmpCOAYEGHBY98HR2mgD7iAfNAh/MSDynRSAJUlGyeF43UP4tGF1w0K6AoYC+smFzzMxFGQfASiTHzlTIVweYfnsnoUDUlGCXA4LPkUt9bMEmGgNFlekEBsUw/3zonXzYz/trNbdP9p/nD4j449k3bxrmzjD8OmiDFIYXrLw==);strokeColor=#ffd965;spacingTop=-3;spacingBottom=-3;spacingLeft=-3;spacingRight=-3;points=[];labelBackgroundColor=none;rounded=0;html=1;whiteSpace=wrap;" parent="uhzGf2CPpyKdWITM7k95-193" vertex="1">
                    <mxGeometry x="4" width="97" height="97" as="geometry"/>
                </mxCell>
                <mxCell id="uhzGf2CPpyKdWITM7k95-196" style="vsdxID=1679;fillColor=#ffe452;gradientColor=none;shape=stencil(vVbbbtswDP0aP4aQSF2fu+4/jNZJjHlxoLhr8veVK/lCtXExYOubTVI6R4cXqaKHy7E+NxWKyxD6X81r+zwcK/pRIbanYxPaIX5V9FjRw74PzSH0L6fn9H+ux8jx63f/Z9zhmtYZCc6Nq1DckkWAwnfDzxTftae/iq/DU3SGHE8Ixqf4kBeQAqGTKQc5BGXZphZ0XnXd1df2sgv9UA9tf8qYydfV4dDsIuBu39UH5rq8Ns15ZZZrik8vIWkgk9N7UBnulk0owZrMAHOUA5t537JJIxDlKMpnEeCmqGyyetLgDr7xQI7jewGmwNcE5Dl+JK4dxycHEjn+EnUvRVoXKSLwyFIkLajpWHnXmDT5jTkCJC6R06ALiRQ4yxWyCixyhTRIwwWKRe03aji6ZVHDhpbyyOQ9SC5QZEPfKBDFikGuUCwrWwhk5oKZFJr7dxZo3eP0eZN/OUS2mCoLUnKmgtOMZyny6JZcZ0rSgSPOMiouzBZy3FZx4MjFKA4uigpyc3PO0BbQcujYDXnrz3uMPszAedOlb7mGUkyq/Jvq2cxJnGS+yMmCj8uYIi6Ol6AUF8ct3bIagF5toccJhcUAHEdr0d0zoQk9Dump5Gd0nBtzRgdk0/fD9Jtmxio5yC+oewX+X1Lz5YW7Do4fy9W+b7suvQzW/vIpEE3pGUGPbw==);strokeColor=#ffd965;spacingTop=-3;spacingBottom=-3;spacingLeft=-3;spacingRight=-3;points=[];labelBackgroundColor=none;rounded=0;html=1;whiteSpace=wrap;" parent="uhzGf2CPpyKdWITM7k95-193" vertex="1">
                    <mxGeometry width="102" height="98" as="geometry"/>
                </mxCell>
                <mxCell id="uhzGf2CPpyKdWITM7k95-197" style="vsdxID=1680;fillColor=#d15900;gradientColor=none;shape=stencil(vVbbTuMwEP2aPHZke3x9ZuE/IkjbaENTuWGBv19nfUnGLUFILG/O+Nhn5swlbvDucmzPXSPYZfLj7+61f5qODf5qhOhPx873U1g1eN/g3X703cGPL6en+H1uZ+S8eh7/zDe8xXOag8H5lGDv0cIA3T/DQ8S3/jFs+oRHAcZEvE8HUAJLVySQFaA0udSAlgmya9/6y86PUzv14ylxxr2h9YduFwh3+6E9kK3La9edV2a+dvHxxceYeNx0DkzmTybBwbrkgSgolpx6TyYlQKqEwhQLT5D0bRS4TXLtgFfkjgMKSh6YjKPkwR+LlBwtMEv5F9RH+XFX6eGGpIcbEIKkxwnQ/Ofyw6g8xgJKKg8DU6VGmlJ4WR1uFw2TSUjATWpkoJHSW6gKQxpKXTqiMK+7Bm+3zedtxomjQ3/6Er4OTGoQlgZWjpTIQvRcVVUH/EpVZa9UTcdu1lxwNndNLjqNYHPFJ/9ASRJQOGW/teTYpjxLyeeqk2AslceCtlQdqxZQ1scA01Sf0D5GbPQkArdXTSk10Wfd6omIsZ/TRyGoqi8WflEmm666Mkw2VtWP5SBuzEy3xR6GGnLKPo9ipPzFocwehnr5rWT2kApVscPWvMTCvMoNTc2NZvx/ifnqHAiL5d++74chPg3W+/VbIJjiOwLv/wI=);strokeColor=#ffd965;spacingTop=-3;spacingBottom=-3;spacingLeft=-3;spacingRight=-3;points=[];labelBackgroundColor=none;rounded=0;html=1;whiteSpace=wrap;" parent="uhzGf2CPpyKdWITM7k95-193" vertex="1">
                    <mxGeometry width="102" height="98" as="geometry"/>
                </mxCell>
                <mxCell id="uhzGf2CPpyKdWITM7k95-198" style="vsdxID=1681;fillColor=none;gradientColor=none;strokeColor=none;spacingTop=-3;spacingBottom=-3;spacingLeft=-3;spacingRight=-3;points=[];labelBackgroundColor=none;rounded=0;html=1;whiteSpace=wrap;" parent="uhzGf2CPpyKdWITM7k95-192" vertex="1">
                    <mxGeometry x="33" y="20" width="36" height="57" as="geometry"/>
                </mxCell>
                <mxCell id="uhzGf2CPpyKdWITM7k95-199" style="vsdxID=1682;fillColor=#ffd70f;gradientColor=none;shape=stencil(vVfbcpswEP0aHr2j++U5Tf+DSbDNlBqPTBrn7ysiLlkkFLfD8AbSao/27NmVVPCn27m8VgUjt861v6r3+rU7F/xHwVh9OVeu7vxXwZ8L/nRsXXVy7dvlNfxfy96y//rd/uk93MM6K0D1ixj5CAPcgvwc+BnMS/fiJ91gTg0IHuzdsIBSkDQMrflkHPrfT5NDea9vB9d2ZVe3lzBPwlxTulN18ICHY1Oe0NTtvaqu0fCwxaa+5CKa0ZP2ioHlmALgIksB1xEFwiAKuAZC0053oCCDnrSX097WKIsokDaiQGEVRE4nZe3BAAPCELpUQPV6SBIMxRFxUBznlIPEQpFzNWwUEs2EFMEbA9ash6RGuseIBBCFI5LANHJpKWi1aUSZJAkNzGJ4O24oGZGYZD2GxCZJDRnxxSxXXO4QUQ4+3XzEVElzBqzccIH2vQnn2GjIcMyAqUVpg8CVnXApQe1Gcg4+zZmvBHwkGDacESsUyIgCXDgJj2Tr/p5pBTn4BynTOtvh2RTNFxVgDhI+JdDdzrgc/IOkeRfa5jgQy0MOJG43sU/lD7ltK+GfdDDDr5FmcH/yLnhWB2x51wHBioUOlj7F1Nd30cEqfJo0CQQvkBZsTjjxAn8FzCB8e6fGV3BJgBhczUAz7YmS6cI9JmXWwX2BOLqk4r87NH1Al9EOmVnucCEbYUGvRL1D5WTQ0wf7tznyH/Mb61g3TXiifZ1fvsn8UHjP8ee/);strokeColor=none;strokeWidth=3;spacingTop=-3;spacingBottom=-3;spacingLeft=-3;spacingRight=-3;points=[];labelBackgroundColor=none;rounded=0;html=1;whiteSpace=wrap;" parent="uhzGf2CPpyKdWITM7k95-198" vertex="1">
                    <mxGeometry width="36" height="57" as="geometry"/>
                </mxCell>
                <mxCell id="uhzGf2CPpyKdWITM7k95-200" style="vsdxID=1683;fillColor=#ff9300;gradientColor=none;fillOpacity=75;strokeOpacity=75;shape=stencil(vVTBboMwDP2aHLGCQxJy7rr/iNYA0RipAlu7v19YULsAotqh3ILtZz8/GxN26Bt9NgRpP3j3bi72NDSEvRBE2zXG2yG8CDsSdqicN7V3n90pfp/1GDm+PtzXmOEaccgB2YhC+h0tSgErfi2vEdDa7n8A7d+C108AzqCYAH5CcMh5tEwxqoS8TJNKkGqKyfTV9pl3gx6s66KfRl+rfW2yUDCrWl0nrv5izHlhXqVYKJAipVhA+YhhEAKfxzBVfVk+VJcbopcgcS66EElLkgPlSU4KZb5XRxvV1zvKYTEilc4IgaokI95Ee/4OCYSCpwQFUNwmeBviDoIvit8XeF1wAUrOVyj9bbduwR4dPT5F4XG/fJVt23g4//rnlzKY4pVlxx8=);strokeColor=none;strokeWidth=3;spacingTop=-3;spacingBottom=-3;spacingLeft=-3;spacingRight=-3;points=[];labelBackgroundColor=none;rounded=0;html=1;whiteSpace=wrap;" parent="uhzGf2CPpyKdWITM7k95-198" vertex="1">
                    <mxGeometry x="14" y="35" width="1" height="15" as="geometry"/>
                </mxCell>
                <mxCell id="uhzGf2CPpyKdWITM7k95-201" style="vsdxID=1684;fillColor=#ff9300;gradientColor=none;fillOpacity=75;strokeOpacity=75;shape=stencil(vVPLDoMgEPwajhoUbeLZ2v8gFZWUgllptX9fLKQ+aNPEJt6W3VlmZ2EQybuGtgzFuNOgLqznpW4QOaI45rJhwLWJECkQySsFrAZ1k6U9t3REjtFV3ccbBtuHx44YP+wpJSHOXpmTBVM4myo4cBqmkcWDa0gOYeZSHsZBIuw4hoAOvAtAaaq5kgt+QaFmgWELKkHrRanrGWu9tJtPcDkTkyVhkn0k3yznPb23oR30rMmn8Tbr8Ve02+t4P+PPp/m2mx2k/HCNCSa/VVwIa9d5fe1Pk7LeJsUT);strokeColor=none;strokeWidth=3;spacingTop=-3;spacingBottom=-3;spacingLeft=-3;spacingRight=-3;points=[];labelBackgroundColor=none;rounded=0;html=1;whiteSpace=wrap;" parent="uhzGf2CPpyKdWITM7k95-198" vertex="1">
                    <mxGeometry x="8" y="17" width="18" height="2" as="geometry"/>
                </mxCell>
                <mxCell id="uhzGf2CPpyKdWITM7k95-202" style="vsdxID=1685;fillColor=#ff9300;gradientColor=none;fillOpacity=75;strokeOpacity=75;shape=stencil(vVPLDoMgEPwajhoUbeLZ2v8gFZWUgllptX9fLKQ+aNPEJt6W3VlmZ2EQybuGtgzFuNOgLqznpW4QOaI45rJhwLWJECkQySsFrAZ1k6U9t3REjtFV3ccbBtuHx44YP+wpJSHOXpmTBVM4myo4cBqmkcWDa0gOYeZSHsZBIuw4hoAOvAtAaaq5kgt+QaFmgWELKkHrRanrGWu9tJtPcDkTkyVhkn0k3yznPb23oR30rMmn8Tbr8Ve02+t4P+PPp/m2mx2k/HCNCSa/VVwIa9d5fe1Pk7LeJsUT);strokeColor=none;strokeWidth=3;spacingTop=-3;spacingBottom=-3;spacingLeft=-3;spacingRight=-3;points=[];labelBackgroundColor=none;rounded=0;html=1;whiteSpace=wrap;" parent="uhzGf2CPpyKdWITM7k95-198" vertex="1">
                    <mxGeometry x="8" y="20" width="18" height="2" as="geometry"/>
                </mxCell>
                <UserObject label="&lt;div style=&quot;font-size: 1px&quot;&gt;&lt;p style=&quot;text-align:left;margin-left:0;margin-right:0;margin-top:0px;margin-bottom:0px;text-indent:0;vertical-align:middle;direction:ltr;&quot;&gt;&lt;font style=&quot;font-size:33.87px;font-family:Segoe UI Semibold;color:#000000;direction:ltr;letter-spacing:0px;line-height:120%;opacity:1&quot;&gt;&lt;b&gt;Platform Management S&lt;/b&gt;&lt;/font&gt;&lt;font style=&quot;font-size:33.87px;font-family:Segoe UI Semibold;color:#000000;direction:ltr;letter-spacing:0px;line-height:120%;opacity:1&quot;&gt;&lt;b&gt;ubscription&lt;br/&gt;&lt;/b&gt;&lt;/font&gt;&lt;/p&gt;&lt;/div&gt;" tags="Background" id="uhzGf2CPpyKdWITM7k95-203">
                    <mxCell style="verticalAlign=middle;align=left;overflow=width;vsdxID=1686;fillColor=none;gradientColor=none;shape=stencil(nZBLDoAgDERP0z3SIyjew0SURgSD+Lu9kMZoXLhwN9O+tukAlrNpJg1SzDH4QW/URgNYgZTkjA4UkwJUgGXng+6DX1zLfmoymdXo17xh5zmRJ6Q42BWCfc2oJfdAr+Yv+AP9Cb7OJ3H/2JG1HNGz/84klThPVCc=);strokeColor=none;points=[];labelBackgroundColor=none;rounded=0;html=1;whiteSpace=wrap;" parent="1" vertex="1">
                        <mxGeometry x="400" y="324" width="601" height="59" as="geometry"/>
                    </mxCell>
                </UserObject>
                <UserObject label="&lt;div style=&quot;font-size: 1px&quot;&gt;&lt;font style=&quot;font-size:33.87px;font-family:Segoe UI Semibold;color:#ffffff;direction:ltr;letter-spacing:0px;line-height:120%;opacity:1&quot;&gt;&lt;b&gt;Hybrid Cloud Operations&lt;br/&gt;&lt;/b&gt;&lt;/font&gt;&lt;/div&gt;" tags="Background" id="uhzGf2CPpyKdWITM7k95-204">
                    <mxCell style="verticalAlign=top;align=center;overflow=width;vsdxID=1687;fillColor=#41719c;gradientColor=none;fillOpacity=50;shape=stencil(nZBLDoAgDERP0z3SIyjew0SURgSD+Lu9kMZoXLhwN9O+tukAlrNpJg1SzDH4QW/URgNYgZTkjA4UkwJUgGXng+6DX1zLfmoymdXo17xh5zmRJ6Q42BWCfc2oJfdAr+Yv+AP9Cb7OJ3H/2JG1HNGz/84klThPVCc=);strokeColor=none;points=[[0,0.5,0]];labelBackgroundColor=none;rounded=0;html=1;whiteSpace=wrap;" parent="1" vertex="1">
                        <mxGeometry x="424" y="949" width="920" height="360" as="geometry"/>
                    </mxCell>
                </UserObject>
                <UserObject label="&lt;div style=&quot;font-size: 1px&quot;&gt;&lt;font style=&quot;font-size:16.93px;font-family:Segoe UI Semibold;color:#FFFFFF;direction:ltr;letter-spacing:0px;line-height:120%;opacity:1&quot;&gt;&lt;b&gt;Monitoring&lt;br/&gt;&lt;/b&gt;&lt;/font&gt;&lt;/div&gt;" tags="Background" id="uhzGf2CPpyKdWITM7k95-205">
                    <mxCell style="verticalAlign=middle;align=center;overflow=width;vsdxID=1688;fillColor=#ea700d;gradientColor=none;fillOpacity=75;shape=stencil(nZBLDoAgDERP0z3SIyjew0SURgSD+Lu9kMZoXLhwN9O+tukAlrNpJg1SzDH4QW/URgNYgZTkjA4UkwJUgGXng+6DX1zLfmoymdXo17xh5zmRJ6Q42BWCfc2oJfdAr+Yv+AP9Cb7OJ3H/2JG1HNGz/84klThPVCc=);strokeColor=none;points=[[0,0.5,0]];labelBackgroundColor=none;rounded=0;html=1;whiteSpace=wrap;" parent="1" vertex="1">
                        <mxGeometry x="444" y="1009" width="160" height="80" as="geometry"/>
                    </mxCell>
                </UserObject>
                <UserObject label="&lt;div style=&quot;font-size: 1px&quot;&gt;&lt;font style=&quot;font-size:16.93px;font-family:Segoe UI Semibold;color:#FFFFFF;direction:ltr;letter-spacing:0px;line-height:120%;opacity:1&quot;&gt;&lt;b&gt;Change&lt;br/&gt;Management&lt;br/&gt;&lt;/b&gt;&lt;/font&gt;&lt;/div&gt;" tags="Background" id="uhzGf2CPpyKdWITM7k95-206">
                    <mxCell style="verticalAlign=middle;align=center;overflow=width;vsdxID=1689;fillColor=#ea700d;gradientColor=none;fillOpacity=75;shape=stencil(nZBLDoAgDERP0z3SIyjew0SURgSD+Lu9kMZoXLhwN9O+tukAlrNpJg1SzDH4QW/URgNYgZTkjA4UkwJUgGXng+6DX1zLfmoymdXo17xh5zmRJ6Q42BWCfc2oJfdAr+Yv+AP9Cb7OJ3H/2JG1HNGz/84klThPVCc=);strokeColor=none;points=[[0,0.5,0]];labelBackgroundColor=none;rounded=0;html=1;whiteSpace=wrap;" parent="1" vertex="1">
                        <mxGeometry x="624" y="1009" width="160" height="80" as="geometry"/>
                    </mxCell>
                </UserObject>
                <UserObject label="&lt;div style=&quot;font-size: 1px&quot;&gt;&lt;font style=&quot;font-size:16.93px;font-family:Segoe UI Semibold;color:#FFFFFF;direction:ltr;letter-spacing:0px;line-height:120%;opacity:1&quot;&gt;&lt;b&gt;Policy &lt;br/&gt;Management&lt;br/&gt;&lt;/b&gt;&lt;/font&gt;&lt;/div&gt;" tags="Background" id="uhzGf2CPpyKdWITM7k95-207">
                    <mxCell style="verticalAlign=middle;align=center;overflow=width;vsdxID=1690;fillColor=#ea700d;gradientColor=none;fillOpacity=75;shape=stencil(nZBLDoAgDERP0z3SIyjew0SURgSD+Lu9kMZoXLhwN9O+tukAlrNpJg1SzDH4QW/URgNYgZTkjA4UkwJUgGXng+6DX1zLfmoymdXo17xh5zmRJ6Q42BWCfc2oJfdAr+Yv+AP9Cb7OJ3H/2JG1HNGz/84klThPVCc=);strokeColor=none;points=[[0,0.5,0]];labelBackgroundColor=none;rounded=0;html=1;whiteSpace=wrap;" parent="1" vertex="1">
                        <mxGeometry x="804" y="1009" width="160" height="80" as="geometry"/>
                    </mxCell>
                </UserObject>
                <UserObject label="&lt;div style=&quot;font-size: 1px&quot;&gt;&lt;font style=&quot;font-size:16.93px;font-family:Segoe UI Semibold;color:#FFFFFF;direction:ltr;letter-spacing:0px;line-height:120%;opacity:1&quot;&gt;&lt;b&gt;Network &lt;br/&gt;Management&lt;br/&gt;&lt;/b&gt;&lt;/font&gt;&lt;/div&gt;" tags="Background" id="uhzGf2CPpyKdWITM7k95-208">
                    <mxCell style="verticalAlign=middle;align=center;overflow=width;vsdxID=1691;fillColor=#ea700d;gradientColor=none;fillOpacity=75;shape=stencil(nZBLDoAgDERP0z3SIyjew0SURgSD+Lu9kMZoXLhwN9O+tukAlrNpJg1SzDH4QW/URgNYgZTkjA4UkwJUgGXng+6DX1zLfmoymdXo17xh5zmRJ6Q42BWCfc2oJfdAr+Yv+AP9Cb7OJ3H/2JG1HNGz/84klThPVCc=);strokeColor=none;points=[[0,0.5,0]];labelBackgroundColor=none;rounded=0;html=1;whiteSpace=wrap;" parent="1" vertex="1">
                        <mxGeometry x="984" y="1009" width="160" height="80" as="geometry"/>
                    </mxCell>
                </UserObject>
                <UserObject label="&lt;div style=&quot;font-size: 1px&quot;&gt;&lt;font style=&quot;font-size:16.93px;font-family:Segoe UI Semibold;color:#FFFFFF;direction:ltr;letter-spacing:0px;line-height:120%;opacity:1&quot;&gt;&lt;b&gt;Data Protection &lt;br/&gt;Management&lt;br/&gt;&lt;/b&gt;&lt;/font&gt;&lt;/div&gt;" tags="Background" id="uhzGf2CPpyKdWITM7k95-209">
                    <mxCell style="verticalAlign=middle;align=center;overflow=width;vsdxID=1692;fillColor=#ea700d;gradientColor=none;fillOpacity=75;shape=stencil(nZBLDoAgDERP0z3SIyjew0SURgSD+Lu9kMZoXLhwN9O+tukAlrNpJg1SzDH4QW/URgNYgZTkjA4UkwJUgGXng+6DX1zLfmoymdXo17xh5zmRJ6Q42BWCfc2oJfdAr+Yv+AP9Cb7OJ3H/2JG1HNGz/84klThPVCc=);strokeColor=none;points=[[0,0.5,0]];labelBackgroundColor=none;rounded=0;html=1;whiteSpace=wrap;" parent="1" vertex="1">
                        <mxGeometry x="1164" y="1009" width="160" height="80" as="geometry"/>
                    </mxCell>
                </UserObject>
                <UserObject label="&lt;div style=&quot;font-size: 1px&quot;&gt;&lt;font style=&quot;font-size:16.93px;font-family:Segoe UI Semibold;color:#FFFFFF;direction:ltr;letter-spacing:0px;line-height:120%;opacity:1&quot;&gt;&lt;b&gt;Reporting&lt;br/&gt;&lt;/b&gt;&lt;/font&gt;&lt;/div&gt;" tags="Background" id="uhzGf2CPpyKdWITM7k95-210">
                    <mxCell style="verticalAlign=middle;align=center;overflow=width;vsdxID=1693;fillColor=#ea700d;gradientColor=none;fillOpacity=75;shape=stencil(nZBLDoAgDERP0z3SIyjew0SURgSD+Lu9kMZoXLhwN9O+tukAlrNpJg1SzDH4QW/URgNYgZTkjA4UkwJUgGXng+6DX1zLfmoymdXo17xh5zmRJ6Q42BWCfc2oJfdAr+Yv+AP9Cb7OJ3H/2JG1HNGz/84klThPVCc=);strokeColor=none;points=[[0,0.5,0]];labelBackgroundColor=none;rounded=0;html=1;whiteSpace=wrap;" parent="1" vertex="1">
                        <mxGeometry x="444" y="1109" width="160" height="80" as="geometry"/>
                    </mxCell>
                </UserObject>
                <UserObject label="&lt;div style=&quot;font-size: 1px&quot;&gt;&lt;font style=&quot;font-size:16.93px;font-family:Segoe UI Semibold;color:#FFFFFF;direction:ltr;letter-spacing:0px;line-height:120%;opacity:1&quot;&gt;&lt;b&gt;Incident &lt;br/&gt;Management&lt;br/&gt;&lt;/b&gt;&lt;/font&gt;&lt;/div&gt;" tags="Background" id="uhzGf2CPpyKdWITM7k95-211">
                    <mxCell style="verticalAlign=middle;align=center;overflow=width;vsdxID=1694;fillColor=#ea700d;gradientColor=none;fillOpacity=75;shape=stencil(nZBLDoAgDERP0z3SIyjew0SURgSD+Lu9kMZoXLhwN9O+tukAlrNpJg1SzDH4QW/URgNYgZTkjA4UkwJUgGXng+6DX1zLfmoymdXo17xh5zmRJ6Q42BWCfc2oJfdAr+Yv+AP9Cb7OJ3H/2JG1HNGz/84klThPVCc=);strokeColor=none;points=[[0,0.5,0]];labelBackgroundColor=none;rounded=0;html=1;whiteSpace=wrap;" parent="1" vertex="1">
                        <mxGeometry x="624" y="1109" width="160" height="80" as="geometry"/>
                    </mxCell>
                </UserObject>
                <UserObject label="&lt;div style=&quot;font-size: 1px&quot;&gt;&lt;font style=&quot;font-size:16.93px;font-family:Segoe UI Semibold;color:#FFFFFF;direction:ltr;letter-spacing:0px;line-height:120%;opacity:1&quot;&gt;&lt;b&gt;Automation&lt;br/&gt;&lt;/b&gt;&lt;/font&gt;&lt;/div&gt;" tags="Background" id="uhzGf2CPpyKdWITM7k95-212">
                    <mxCell style="verticalAlign=middle;align=center;overflow=width;vsdxID=1695;fillColor=#ea700d;gradientColor=none;fillOpacity=75;shape=stencil(nZBLDoAgDERP0z3SIyjew0SURgSD+Lu9kMZoXLhwN9O+tukAlrNpJg1SzDH4QW/URgNYgZTkjA4UkwJUgGXng+6DX1zLfmoymdXo17xh5zmRJ6Q42BWCfc2oJfdAr+Yv+AP9Cb7OJ3H/2JG1HNGz/84klThPVCc=);strokeColor=none;points=[[0,0.5,0]];labelBackgroundColor=none;rounded=0;html=1;whiteSpace=wrap;" parent="1" vertex="1">
                        <mxGeometry x="804" y="1109" width="160" height="80" as="geometry"/>
                    </mxCell>
                </UserObject>
                <UserObject label="&lt;div style=&quot;font-size: 1px&quot;&gt;&lt;font style=&quot;font-size:16.93px;font-family:Segoe UI Semibold;color:#FFFFFF;direction:ltr;letter-spacing:0px;line-height:120%;opacity:1&quot;&gt;&lt;b&gt;License &lt;br/&gt;Management&lt;br/&gt;&lt;/b&gt;&lt;/font&gt;&lt;/div&gt;" tags="Background" id="uhzGf2CPpyKdWITM7k95-213">
                    <mxCell style="verticalAlign=middle;align=center;overflow=width;vsdxID=1696;fillColor=#ea700d;gradientColor=none;fillOpacity=75;shape=stencil(nZBLDoAgDERP0z3SIyjew0SURgSD+Lu9kMZoXLhwN9O+tukAlrNpJg1SzDH4QW/URgNYgZTkjA4UkwJUgGXng+6DX1zLfmoymdXo17xh5zmRJ6Q42BWCfc2oJfdAr+Yv+AP9Cb7OJ3H/2JG1HNGz/84klThPVCc=);strokeColor=none;points=[[0,0.5,0]];labelBackgroundColor=none;rounded=0;html=1;whiteSpace=wrap;" parent="1" vertex="1">
                        <mxGeometry x="984" y="1109" width="160" height="80" as="geometry"/>
                    </mxCell>
                </UserObject>
                <UserObject label="&lt;div style=&quot;font-size: 1px&quot;&gt;&lt;font style=&quot;font-size:16.93px;font-family:Segoe UI Semibold;color:#FFFFFF;direction:ltr;letter-spacing:0px;line-height:120%;opacity:1&quot;&gt;&lt;b&gt;Subscription &lt;br/&gt;Management&lt;br/&gt;&lt;/b&gt;&lt;/font&gt;&lt;/div&gt;" tags="Background" id="uhzGf2CPpyKdWITM7k95-214">
                    <mxCell style="verticalAlign=middle;align=center;overflow=width;vsdxID=1697;fillColor=#ea700d;gradientColor=none;fillOpacity=75;shape=stencil(nZBLDoAgDERP0z3SIyjew0SURgSD+Lu9kMZoXLhwN9O+tukAlrNpJg1SzDH4QW/URgNYgZTkjA4UkwJUgGXng+6DX1zLfmoymdXo17xh5zmRJ6Q42BWCfc2oJfdAr+Yv+AP9Cb7OJ3H/2JG1HNGz/84klThPVCc=);strokeColor=none;points=[[0,0.5,0]];labelBackgroundColor=none;rounded=0;html=1;whiteSpace=wrap;" parent="1" vertex="1">
                        <mxGeometry x="1164" y="1109" width="160" height="80" as="geometry"/>
                    </mxCell>
                </UserObject>
                <UserObject label="&lt;div style=&quot;font-size: 1px&quot;&gt;&lt;font style=&quot;font-size:16.93px;font-family:Segoe UI Semibold;color:#FFFFFF;direction:ltr;letter-spacing:0px;line-height:120%;opacity:1&quot;&gt;&lt;b&gt;Security &lt;br/&gt;Management&lt;br/&gt;&lt;/b&gt;&lt;/font&gt;&lt;/div&gt;" tags="Background" id="uhzGf2CPpyKdWITM7k95-215">
                    <mxCell style="verticalAlign=middle;align=center;overflow=width;vsdxID=1698;fillColor=#ea700d;gradientColor=none;fillOpacity=75;shape=stencil(nZBLDoAgDERP0z3SIyjew0SURgSD+Lu9kMZoXLhwN9O+tukAlrNpJg1SzDH4QW/URgNYgZTkjA4UkwJUgGXng+6DX1zLfmoymdXo17xh5zmRJ6Q42BWCfc2oJfdAr+Yv+AP9Cb7OJ3H/2JG1HNGz/84klThPVCc=);strokeColor=none;points=[[0,0.5,0]];labelBackgroundColor=none;rounded=0;html=1;whiteSpace=wrap;" parent="1" vertex="1">
                        <mxGeometry x="444" y="1209" width="160" height="80" as="geometry"/>
                    </mxCell>
                </UserObject>
                <UserObject label="&lt;div style=&quot;font-size: 1px&quot;&gt;&lt;font style=&quot;font-size:16.93px;font-family:Segoe UI Semibold;color:#FFFFFF;direction:ltr;letter-spacing:0px;line-height:120%;opacity:1&quot;&gt;&lt;b&gt;Vulnerability &lt;br/&gt;Management&lt;br/&gt;&lt;/b&gt;&lt;/font&gt;&lt;/div&gt;" tags="Background" id="uhzGf2CPpyKdWITM7k95-216">
                    <mxCell style="verticalAlign=middle;align=center;overflow=width;vsdxID=1699;fillColor=#ea700d;gradientColor=none;fillOpacity=75;shape=stencil(nZBLDoAgDERP0z3SIyjew0SURgSD+Lu9kMZoXLhwN9O+tukAlrNpJg1SzDH4QW/URgNYgZTkjA4UkwJUgGXng+6DX1zLfmoymdXo17xh5zmRJ6Q42BWCfc2oJfdAr+Yv+AP9Cb7OJ3H/2JG1HNGz/84klThPVCc=);strokeColor=none;points=[[0,0.5,0]];labelBackgroundColor=none;rounded=0;html=1;whiteSpace=wrap;" parent="1" vertex="1">
                        <mxGeometry x="624" y="1209" width="160" height="80" as="geometry"/>
                    </mxCell>
                </UserObject>
                <UserObject label="&lt;div style=&quot;font-size: 1px&quot;&gt;&lt;font style=&quot;font-size:16.93px;font-family:Segoe UI Semibold;color:#FFFFFF;direction:ltr;letter-spacing:0px;line-height:120%;opacity:1&quot;&gt;&lt;b&gt;Event Management&lt;br/&gt;&lt;/b&gt;&lt;/font&gt;&lt;/div&gt;" tags="Background" id="uhzGf2CPpyKdWITM7k95-217">
                    <mxCell style="verticalAlign=middle;align=center;overflow=width;vsdxID=1700;fillColor=#ea700d;gradientColor=none;fillOpacity=75;shape=stencil(nZBLDoAgDERP0z3SIyjew0SURgSD+Lu9kMZoXLhwN9O+tukAlrNpJg1SzDH4QW/URgNYgZTkjA4UkwJUgGXng+6DX1zLfmoymdXo17xh5zmRJ6Q42BWCfc2oJfdAr+Yv+AP9Cb7OJ3H/2JG1HNGz/84klThPVCc=);strokeColor=none;points=[[0,0.5,0]];labelBackgroundColor=none;rounded=0;html=1;whiteSpace=wrap;" parent="1" vertex="1">
                        <mxGeometry x="804" y="1209" width="160" height="80" as="geometry"/>
                    </mxCell>
                </UserObject>
                <UserObject label="&lt;div style=&quot;font-size: 1px&quot;&gt;&lt;font style=&quot;font-size:16.93px;font-family:Segoe UI Semibold;color:#FFFFFF;direction:ltr;letter-spacing:0px;line-height:120%;opacity:1&quot;&gt;&lt;b&gt;Key&lt;br/&gt;Management&lt;br/&gt;&lt;/b&gt;&lt;/font&gt;&lt;/div&gt;" tags="Background" id="uhzGf2CPpyKdWITM7k95-218">
                    <mxCell style="verticalAlign=middle;align=center;overflow=width;vsdxID=1701;fillColor=#ea700d;gradientColor=none;fillOpacity=75;shape=stencil(nZBLDoAgDERP0z3SIyjew0SURgSD+Lu9kMZoXLhwN9O+tukAlrNpJg1SzDH4QW/URgNYgZTkjA4UkwJUgGXng+6DX1zLfmoymdXo17xh5zmRJ6Q42BWCfc2oJfdAr+Yv+AP9Cb7OJ3H/2JG1HNGz/84klThPVCc=);strokeColor=none;points=[[0,0.5,0]];labelBackgroundColor=none;rounded=0;html=1;whiteSpace=wrap;" parent="1" vertex="1">
                        <mxGeometry x="984" y="1209" width="160" height="80" as="geometry"/>
                    </mxCell>
                </UserObject>
                <UserObject label="&lt;div style=&quot;font-size: 1px&quot;&gt;&lt;font style=&quot;font-size:16.93px;font-family:Segoe UI Semibold;color:#FFFFFF;direction:ltr;letter-spacing:0px;line-height:120%;opacity:1&quot;&gt;&lt;b&gt;Certificate &lt;br/&gt;Management&lt;br/&gt;&lt;/b&gt;&lt;/font&gt;&lt;/div&gt;" tags="Background" id="uhzGf2CPpyKdWITM7k95-219">
                    <mxCell style="verticalAlign=middle;align=center;overflow=width;vsdxID=1702;fillColor=#ea700d;gradientColor=none;fillOpacity=75;shape=stencil(nZBLDoAgDERP0z3SIyjew0SURgSD+Lu9kMZoXLhwN9O+tukAlrNpJg1SzDH4QW/URgNYgZTkjA4UkwJUgGXng+6DX1zLfmoymdXo17xh5zmRJ6Q42BWCfc2oJfdAr+Yv+AP9Cb7OJ3H/2JG1HNGz/84klThPVCc=);strokeColor=none;points=[[0,0.5,0]];labelBackgroundColor=none;rounded=0;html=1;whiteSpace=wrap;" parent="1" vertex="1">
                        <mxGeometry x="1164" y="1209" width="160" height="80" as="geometry"/>
                    </mxCell>
                </UserObject>
                <UserObject label="" tags="Background" id="uhzGf2CPpyKdWITM7k95-220">
                    <mxCell style="vsdxID=1706;fillColor=none;gradientColor=none;strokeColor=none;spacingTop=-3;spacingBottom=-3;spacingLeft=-3;spacingRight=-3;points=[];labelBackgroundColor=none;rounded=0;html=1;whiteSpace=wrap;" parent="1" vertex="1">
                        <mxGeometry x="365" y="797" width="63" height="63" as="geometry"/>
                    </mxCell>
                </UserObject>
                <mxCell id="uhzGf2CPpyKdWITM7k95-221" style="vsdxID=1707;fillColor=#5e9624;gradientColor=none;shape=stencil(vVPLcoMwDPwaH9HIFgZzTtP/8CQGPKXAGNLA3xdq09TJZOilvemx1motidFhqHVvmMBhdN2budrzWDN6YULYtjbOjovF6MjoUHbOVK67tGfv93pFrtZ797FWmPy7ggOK9ZXA2Uc44pf/6uHanZacC3AFufRot8FTSLkPbSULKLKopJKgKGASPdkhcd2oR9u1Pu8JsdGuMslCmJSNrqLUcDWmfwiHFhvbmh36lJ5rIsjuNGWAu5II8r9TdLo4PyQe+LNNAc4hRDnI0NIkQk8IMvQ9i4hsIu9K/FY20y94eXGryOOKYvs8ihmJg4xJMSZcf049n0YBmD5smFLROBTgxhrv7H+s197BLMbt2ErbNP5Wf+bvj3MJ+cOm4yc=);strokeColor=none;spacingTop=-3;spacingBottom=-3;spacingLeft=-3;spacingRight=-3;points=[];labelBackgroundColor=none;rounded=0;html=1;whiteSpace=wrap;" parent="uhzGf2CPpyKdWITM7k95-220" vertex="1">
                    <mxGeometry y="27" width="55" height="33" as="geometry"/>
                </mxCell>
                <mxCell id="uhzGf2CPpyKdWITM7k95-222" style="vsdxID=1708;fillColor=#FFFFFF;gradientColor=none;shape=stencil(vVJdE4IgEPw1PMrwoanPZf+DSVQmEuektH8fBpU0U731dre7B7ewiG/HTgwSMTJaMEc5qdp2iO8QY6rvJCjrKsQrxLeNAdmCOfe17wexKJfqZC7LCbOfyyhm5TLFyNUjlGJ+B/ZeL+DgSAj6MsOEej2EgZziIkBBRKIDQzcnYlZjAsYKq0wfcVpAKxN3U9Jo0UbUOEk5rGC63k2rfuUlLXHGYi+EfJY/yOeeOP9mfIPT4s04wyWLjH95zT/4//2XrngFoVFa+xyt+ffgOMiHjlc3);strokeColor=none;spacingTop=-3;spacingBottom=-3;spacingLeft=-3;spacingRight=-3;points=[];labelBackgroundColor=none;rounded=0;html=1;whiteSpace=wrap;" parent="uhzGf2CPpyKdWITM7k95-220" vertex="1">
                    <mxGeometry x="19" y="28" width="16" height="21" as="geometry"/>
                </mxCell>
                <mxCell id="uhzGf2CPpyKdWITM7k95-223" style="vsdxID=1709;fillColor=#5e9624;gradientColor=none;shape=stencil(vVHLDsIgEPwajiQI6RfU+h8bu22JCGRB2/69kG1iazx58DazM/vIjjBtmiCi0CplCjecbZ8nYc5Ca+snJJsLEqYTph0C4Ujh4XvmEaqzont41gkL96naodXKrGF6YSfQtUi0OXXDVlqPfJNP6usotUhYbJIUMmQb/GGrAxpRljVycDBuc1hKM2LclX8/7H9nFfB+82Cd45T2+mcspcSRmu4F);strokeColor=none;spacingTop=-3;spacingBottom=-3;spacingLeft=-3;spacingRight=-3;points=[];labelBackgroundColor=none;rounded=0;html=1;whiteSpace=wrap;" parent="uhzGf2CPpyKdWITM7k95-220" vertex="1">
                    <mxGeometry x="12" width="31" height="31" as="geometry"/>
                </mxCell>
                <mxCell id="uhzGf2CPpyKdWITM7k95-224" style="vsdxID=1710;fillColor=#32bedd;gradientColor=none;shape=stencil(lZFhDoIwDIVP079kthEPgHgPEoZrnBsZU+D2bmmMYiKBf+9132uaN6BqME2vAdUQg7/pkdtogM6AyM7owDEpoBqo6nzQ1+AfrhXfN5nM6u6fecMkuYNSOYNqFi/uIqhlt4KWZXHE//gSfoc3oEQFnbafsePiBZrEp5SOrZVOv99/S0wj+QCqXw==);strokeColor=none;spacingTop=-3;spacingBottom=-3;spacingLeft=-3;spacingRight=-3;points=[];labelBackgroundColor=none;rounded=0;html=1;whiteSpace=wrap;" parent="uhzGf2CPpyKdWITM7k95-220" vertex="1">
                    <mxGeometry x="49" y="39" width="13" height="23" as="geometry"/>
                </mxCell>
                <mxCell id="uhzGf2CPpyKdWITM7k95-225" style="vsdxID=1711;fillColor=#9cebff;gradientColor=none;shape=stencil(UzV2Ls5ILEhVNTIoLinKz04tz0wpyVA1dlE1MsrMy0gtyiwBslSNXVWNndPyi1LTi/JL81Ig/IJEkEoQKze/DGRCBUSfoYEBSI+RQSWEb2qgZ2ABFnGDKM/JzENSboqqGqYbq1pKDMZjLIkuJqgcyEAETlpmTg4kbJHl0QMTKASJCGNXAA==);strokeColor=none;spacingTop=-3;spacingBottom=-3;spacingLeft=-3;spacingRight=-3;points=[];labelBackgroundColor=none;rounded=0;html=1;whiteSpace=wrap;" parent="uhzGf2CPpyKdWITM7k95-220" vertex="1">
                    <mxGeometry x="36" y="31" width="27" height="15" as="geometry"/>
                </mxCell>
                <mxCell id="uhzGf2CPpyKdWITM7k95-226" style="vsdxID=1712;fillColor=#50e6ff;gradientColor=none;shape=stencil(UzV2Ls5ILEhVNTIoLinKz04tz0wpyVA1dlE1MsrMy0gtyiwBslSNXVWNndPyi1LTi/JL81Ig/IJEkEoQKze/DGRCBUSfoYEBSI+RQSWEb2ysZ2wOFnGDKM/JzMOjHMbHqhhVqZmZnqkRsYrxmEqhizGUAxmIwEnLzMmBhC2yPHpgAoUgEWHsCgA=);strokeColor=none;spacingTop=-3;spacingBottom=-3;spacingLeft=-3;spacingRight=-3;points=[];labelBackgroundColor=none;rounded=0;html=1;whiteSpace=wrap;" parent="uhzGf2CPpyKdWITM7k95-220" vertex="1">
                    <mxGeometry x="36" y="39" width="13" height="23" as="geometry"/>
                </mxCell>
                <mxCell id="uhzGf2CPpyKdWITM7k95-227" style="vsdxID=1713;fillColor=#9cebff;gradientColor=none;shape=stencil(UzV2Ls5ILEhVNTIoLinKz04tz0wpyVA1dlE1MsrMy0gtyiwBslSNXVWNndPyi1LTi/JL81Ig/IJEkEoQKze/DGRCBUSfAUiHkUElhGdiqWduChZxgyjOycxDUmxogKrcgHilMD5WxSQ5goBiIAPh17TMnBxIUCHLo4cNUAgSrsauAA==);strokeColor=none;spacingTop=-3;spacingBottom=-3;spacingLeft=-3;spacingRight=-3;points=[];labelBackgroundColor=none;rounded=0;html=1;whiteSpace=wrap;" parent="uhzGf2CPpyKdWITM7k95-220" vertex="1">
                    <mxGeometry x="36" y="47" width="13" height="15" as="geometry"/>
                </mxCell>
                <mxCell id="uhzGf2CPpyKdWITM7k95-228" style="vsdxID=1714;fillColor=#50e6ff;gradientColor=none;shape=stencil(UzV2Ls5ILEhVNTIoLinKz04tz0wpyVA1dlE1MsrMy0gtyiwBslSNXVWNndPyi1LTi/JL81Ig/IJEkEoQKze/DGRCBUSfoYEBSI+RQSWEb2KpZ24KFnGDKM/JzENSjqrYgFiFMFuwKiXRCQSVAxkI36Zl5uRAAgtZHj10gEKQkDV2BQA=);strokeColor=none;spacingTop=-3;spacingBottom=-3;spacingLeft=-3;spacingRight=-3;points=[];labelBackgroundColor=none;rounded=0;html=1;whiteSpace=wrap;" parent="uhzGf2CPpyKdWITM7k95-220" vertex="1">
                    <mxGeometry x="49" y="47" width="13" height="15" as="geometry"/>
                </mxCell>
                <UserObject label="" tags="Background" id="uhzGf2CPpyKdWITM7k95-229">
                    <mxCell style="vsdxID=1715;fillColor=none;gradientColor=none;strokeColor=none;spacingTop=-3;spacingBottom=-3;spacingLeft=-3;spacingRight=-3;points=[];labelBackgroundColor=none;rounded=0;html=1;whiteSpace=wrap;" parent="1" vertex="1">
                        <mxGeometry x="1077" y="789" width="52" height="63" as="geometry"/>
                    </mxCell>
                </UserObject>
                <mxCell id="uhzGf2CPpyKdWITM7k95-230" style="vsdxID=1716;fillColor=#0078d4;gradientColor=none;shape=stencil(vVTLUoQwEPwajkwlGRLgvK7/kdoNkBJhK7Au/r3BBGFQVy96Cz2PnnSHSfAwNPpiEsGG0fVP5mbPY5PgQyKE7Rrj7OhPCR4TPFS9M7Xrr905fF/0nDmfnvuXucMU6jhjc41gr+E7U5Dzd+QxpJ+uLuTzfUEEcgRZBGgSAVIMkMesCJUSRIQmDJDkoGTMilBZghJbdu1OPuzisAg8CwUujitALV3j/AVk5EJrSzalerJD6vpRj7bvQjzeptWuNqmnS6tW1yQ03Iy5bOC78qCnK6lA89UlFYhRcbyEHzMizcBvbGltt3GResgzQLyrovykIhIVEZikLTnk8h9VRCgLqqKfgAuqolBQIFWS7Z7YTkZ2j9S7wHNKyiihUsBySrgda3nEOSVdtfu9HUvLr3/S1eA/cYO+rR83hD+s26WybRuW0za+30YeCpsMj28=);strokeColor=none;spacingTop=-3;spacingBottom=-3;spacingLeft=-3;spacingRight=-3;points=[];labelBackgroundColor=none;rounded=0;html=1;whiteSpace=wrap;" parent="uhzGf2CPpyKdWITM7k95-229" vertex="1">
                    <mxGeometry width="52" height="63" as="geometry"/>
                </mxCell>
                <mxCell id="uhzGf2CPpyKdWITM7k95-231" style="vsdxID=1717;fillColor=#0078d4;gradientColor=none;shape=stencil(tVTbcoMgEP0aH90BVkh4TtP/YBKSMLWaQdPo3xcLGLBjOn3IG569nN2z6xa46y7qqgtGut62H/pujv2lwLeCMdNctDW9exW4L3B3aq0+2/bWHP33VU2e0+uz/ZoyDD6OEjLFMDL670qAwB/k3bsfbtb702VAADYIgnpoYB4SBDBAY4AkB7YJXughTkFUwStAUgKXKbuyB2e2oVgGW28ldoxIFblD/VuoWNbRIycZSjWYrrRtr3rTNt4e2qmVPevS8ZWnWp0zU3fX+prA9Jk+KEHIXKG0d5ZljuqkGmLugStzqU2TjDEfIq2Ai3UZEShdyjhLNAMiT0mB09epmHeDQPgK+5rqFZA4djrHEJGrzgTIuHH5IOadXMhOnpG6qUWGSEpyQiGAYE6YlhW33pXFc95fDf97gssf2+3EzPvyAf55VdzjcZFOpq79QUvtywvmIH/9cP8N);strokeColor=none;spacingTop=-3;spacingBottom=-3;spacingLeft=-3;spacingRight=-3;points=[];labelBackgroundColor=none;rounded=0;html=1;whiteSpace=wrap;" parent="uhzGf2CPpyKdWITM7k95-229" vertex="1">
                    <mxGeometry x="2" y="2" width="48" height="57" as="geometry"/>
                </mxCell>
                <mxCell id="uhzGf2CPpyKdWITM7k95-232" style="vsdxID=1718;fillColor=#ffbd02;gradientColor=none;shape=stencil(xVbbcuIwDP2aPKKxJV+f2+5/ZNoAmaaEMdkt+/d11rBFdgOdAdI3R/axjk50cUUPu3W9bSoUuyH0r817+zKsK3qsENvNugntEFcVPVX0sOxDswr9781L+t7W48lx9db/GW/YJ5xXYM2IQvE3WZQF5/5ZfiVA125OAM6BltcBSIDTp4A6PMfdcAAoAZYSIBwREoRPpsMha4E0u9WDPKD2i3rf7hahH+qh7TdpW6S9rg6rZhEdLpZdvWJbu/em2RbmLymSBbScIjpQmlFEBcYzihY0zkVRRtk1pygVSMMpImj7YyoqCVj850xEGS1T2XMXijx5S/cXsl2DPn88kwC8zCQAyxUQIIhdqaNs/n4CcIIIlCW6BCcvEjzEPMMfKrx7A9JOB6RBqlxxjywgfbzgeKUUYq5wyn58dD4VTd4q82j+k//UB+ern0nn3zquEZCuqh6vgbICdoB37MKXfmfREPg8tgIUnQdwD7FjK38d4MI8HntA1gIsCJ5kpMFnaevAqZvKLKcpRme2HHbE+5RBUJyiBXPbSpDTshuaVuhr2WU5wE0+Hk20ILs1wvC2E/xcUGfcT+ZSVrJjMhELqqyBmKHWzhXUN0owLj4f1Mu269J7/HQ/f4BHU3q809MH);strokeColor=none;spacingTop=-3;spacingBottom=-3;spacingLeft=-3;spacingRight=-3;points=[];labelBackgroundColor=none;rounded=0;html=1;whiteSpace=wrap;" parent="uhzGf2CPpyKdWITM7k95-229" vertex="1">
                    <mxGeometry x="14" y="11" width="23" height="30" as="geometry"/>
                </mxCell>
                <mxCell id="uhzGf2CPpyKdWITM7k95-233" style="vsdxID=1719;fillColor=#ffe452;gradientColor=none;shape=stencil(vZPJEoMgDIafhqMZENdzl/dgWlSmVJxIt7cvFNuKM/XYW5Y/CR8EwjdjJwZJUjpaNCd5U0fbEb4laar6TqKyziJ8R/imMShbNJf+GPxBeKW3zubqO9xDXQ5l7YtS+ggB+vL2QatVP9PWBeQrYoEHl8FPY5/yWpzEJRRT9SRhlEbdGFTZJEjEXY0JGiusMv18GNUCW5m4YUmjRRulxpuUwyzMfrMwqHk8nK7CvG/pDVNBziOYGKXOgLN/scSjPyf7QcLY8lkWJBlUVfzKUJT/YlnfR2d8F7lRWod/MM8vF9+Fwqfhuyc=);strokeColor=none;spacingTop=-3;spacingBottom=-3;spacingLeft=-3;spacingRight=-3;points=[];labelBackgroundColor=none;rounded=0;html=1;whiteSpace=wrap;" parent="uhzGf2CPpyKdWITM7k95-229" vertex="1">
                    <mxGeometry x="14" y="26" width="23" height="15" as="geometry"/>
                </mxCell>
                <mxCell id="uhzGf2CPpyKdWITM7k95-234" style="vsdxID=1720;fillColor=#ffd400;gradientColor=none;fillOpacity=50;strokeOpacity=50;shape=stencil(vVPBcoQgDP0ajmaQ4CLn7fY/mF1UplQcZLvu3xeLTsV2PO4tyXtJeCQheB47NWjC6Bi8+9APcwsdwTfCmOk77U2IFsELwXPjvG69u/e35A9qZs7Wp/uaK0wpT3Jg5ZzF6DNF6I/3nsjW9BsyAj/gKn+NiF+4FfAqcf1CroFiikzb7LVWCTVf4EJNZiy8CyoY12dkq3yri9iqaKxqM2h8aD38Cf8rRMa3iLw7PdDCQYhciwDKMi1r/lov/iuWr5Kzb15DhUdqpNyrwVOmRlbAMJ80nMTLpnO8k9H43ebGWJuOYYvvtz+G0uXg5Rs=);strokeColor=none;spacingTop=-3;spacingBottom=-3;spacingLeft=-3;spacingRight=-3;points=[];labelBackgroundColor=none;rounded=0;html=1;whiteSpace=wrap;" parent="uhzGf2CPpyKdWITM7k95-229" vertex="1">
                    <mxGeometry x="15" y="26" width="23" height="15" as="geometry"/>
                </mxCell>
                <UserObject label="" tags="Background" id="uhzGf2CPpyKdWITM7k95-235">
                    <mxCell style="vsdxID=1721;fillColor=none;gradientColor=none;strokeColor=none;spacingTop=-3;spacingBottom=-3;spacingLeft=-3;spacingRight=-3;points=[];labelBackgroundColor=none;rounded=0;html=1;whiteSpace=wrap;" parent="1" vertex="1">
                        <mxGeometry x="832" y="797" width="63" height="64" as="geometry"/>
                    </mxCell>
                </UserObject>
                <mxCell id="uhzGf2CPpyKdWITM7k95-236" style="vsdxID=1722;rotation=315;fillColor=#198ab3;gradientColor=none;shape=stencil(vVPLDoMgEPwajhqENtaztf9BKiopFbPQqn9fLDa+aprUxNsyO+swi4NorAtWcUSwNqBuvBapKRA9I0JEWXAQxlaIJojGmQKeg3qUqTtXrGN21V09uy80bg53EwS37nQkfhS8kYsjM7jaLvTkAPuh40M/cAh9HDlowWk/QK/ReKwR2gNlmBGqnOhLBjn3rJqXSZZPWrrmvFrA/f2kKEdmTpFPv2pvcLO2oB3szMWH6/3tZ7Gh3d5m8V9sfJm11exg5UdmbDGkLRNSurCO+/N0WsglmyYv);strokeColor=none;spacingTop=-3;spacingBottom=-3;spacingLeft=-3;spacingRight=-3;points=[];labelBackgroundColor=none;rounded=0;html=1;whiteSpace=wrap;" parent="uhzGf2CPpyKdWITM7k95-235" vertex="1">
                    <mxGeometry x="-2" y="52" width="21" height="4" as="geometry"/>
                </mxCell>
                <mxCell id="uhzGf2CPpyKdWITM7k95-237" style="vsdxID=1723;fillColor=#5ea0ef;gradientColor=none;shape=stencil(xVrbcts4DP0aP4bD++W52/0PT+skns3GGcXdtn9fqDZBARQpZcdW32yKEMkD4OBC7cyn9+f922Gn5ft5OP1z+H78en7emb92Wh9fnw/D8Qy/dubzznx6PA2Hp+H07fXr5f/bfpw5/vr39N/4hh8XuRSF16OUlj8vI0aKZH6P/H0R2A9f4OlwFXDwOFwEhp84dH1FfqkWVpGXqiTSdcrD/sfx/WE4nffn4+n18lhenr3sh6fDA6z38PiyfyKP3r8fDm/V8PwOlfC+2mGMZIuwoTxynQMD99vhy/H1sGbx1nQOZ0a8BYCpVeTp+YWirzRB2K00ZJwwim7QWBEC2aEk27O6PL/N/lQXwJgYgAWwjKBDM7vOiUGYzUyovfrskZQXRtMjwZCkkKsgnKEvjSKpzc7UWb7lGMZRP5LZVf6vAIXNRiEthc0GNN7rJB2ETPStDtG+P2ywfGbksnzo8AmwjWH0A9bh2wIQEmziAsl2BJQINKqkTC/z8w2aYpmfdEfACm2pQBTGdARcRblRhNQR8CLqDwkkoan1JuDtjho+LGCBlqjPK9mxCxeECr3pzNQhpjhGykl4R0zdG+EaoGxg6Z3Vm5kAo3GJWr3OiQoPkEkHgvFmodBpNORJqLEUdTimY9Eak7QNYF+RI9KkMnpBIdUmZySzCwTwNdUXYLYK6WRktFy8KVtLEo5xxD1TPLZDIxKzPRjSiewQQrYyjXPfJc2hsC+riarVWR6fIfB1cg7tKwxgyDFGAc7Tfw6D+kwLtroMwhJo4DyqE6mCQtJtCVCYwXskc4ZgCz3gCKshII9BmvkDMJflVwpUKCzh7EwOl/M4V4hUAgznIAKrWgD6TDFN7cGIui3t9HG2obH8SgFAwX3I/ivYqGI0RA+6AtRyppNzB6hVGc4jlVPagAxTMtqAmLCZPUNdoGxj+ZUC4AC6l6RHXlRUAl++DRegFYrgGtch64TNRKBxVgZOY2By2UINTsISwaDWdOeAK9RM7aJGxIvQqRFmIDeZ+FpFRcXsdD4LV0DkLAGGLXnq36CE6Niu/WbuvYwZ8z1TVQyuV4ctz2dZThCeNUqsx2p0Utw12lcb9HIgL5Q8EYtVBe9QicVW4pbNnBAay7cOZV11qMAOhUQ+Uaa5bWXTsdVlW6K2qhRy/DpK1VaY1BdggUVls8P4DTmFpqBpwWgaKsbbZqPEECoOL+tnCtfYjEQKVyLlk2cOdxgPkcMnszKHQ8HRSYk8N5hqPiteLRaGwyQZIIAGQR3LKuyobeL8gW0Q/ITxExiepoY6Foq3bWr0epLLdk8dpdISYO47jSmwg+D6AsxPrGAtiWBy6tF2PvAuuV2ruAKtLN+sx3nHwJQmbUZW18jeNgp0DGFZr4wwPW+aQoXie4TpcrLQFKjcJ/cnprGTWsJM71Zl1tim0eJ4fNeC9lnq+AoHd9t5+LKiqtTY0IwpGdZvrzotoe60GHrlB4qysbGNbXJXdqgFc12BwhJsEN9j/5qCFZGVAGPGUikhNULApjhPayd0ZHdbavxQjVCWXymwANsKnFnEkki+5drNdSIQeIxlOMMQ6+86h8nbxD428+p6+dIgmm84SV4HVQLsmrxu7BnHG06z2Ibb0m8vaC2rltpCSJj/5fsWl8PuPGzLAtVFFq9JJU9fZu4GFFb/G3xgIDHWT+4vWOJcXYqMQeuOF1PscqC6myjLz8NeiBDPpPAI+VDVTRYo88bJQs8Fl22JfR6l8M6mUF3vbr0+YCVAYYsWW0wZtmh46I4SP8MonG7vmGOxC0AvWqu3TKG6/NK85zJmiVXwDZu10lZoll1qKl4djA1Z3dFsUSNqVovKH+K9a8+eYhX/HqYsP69Zx0tDa3nfafyYpG51660Uu0JP8KN8D/l4fHm5fE45fc6/n4Shy7eX5vMv);strokeColor=none;spacingTop=-3;spacingBottom=-3;spacingLeft=-3;spacingRight=-3;points=[];labelBackgroundColor=none;rounded=0;html=1;whiteSpace=wrap;" parent="uhzGf2CPpyKdWITM7k95-235" vertex="1">
                    <mxGeometry x="18" width="44" height="45" as="geometry"/>
                </mxCell>
                <mxCell id="uhzGf2CPpyKdWITM7k95-238" style="vsdxID=1724;fillColor=#50e6ff;gradientColor=none;shape=stencil(vVHLDsIgEPwajiQI6RfU+h8bu22JCGRB2/69kG1iazx58DazM/vIjjBtmiCi0CplCjecbZ8nYc5Ca+snJJsLEqYTph0C4Ujh4XvmEaqzont41gkL96naodXKrGF6YSfQtUi0OXXDVlqPfJNP6usotUhYbJIUMmQb/GGrAxpRljVycDBuc1hKM2LclX8/7H9nFfB+82Cd45T2+mcspcSRmu4F);strokeColor=none;spacingTop=-3;spacingBottom=-3;spacingLeft=-3;spacingRight=-3;points=[];labelBackgroundColor=none;rounded=0;html=1;whiteSpace=wrap;" parent="uhzGf2CPpyKdWITM7k95-235" vertex="1">
                    <mxGeometry x="7" y="23" width="30" height="30" as="geometry"/>
                </mxCell>
                <mxCell id="uhzGf2CPpyKdWITM7k95-239" style="vsdxID=1725;fillColor=#FFFFFF;gradientColor=none;shape=stencil(vVHLDsIgEPwajiQI6RfU+h8bu22JCGRB2/69kG1iazx58DazM/vIjjBtmiCi0CplCjecbZ8nYc5Ca+snJJsLEqYTph0C4Ujh4XvmEaqzont41gkL96naodXKrGF6YSfQtUi0OXXDVlqPfJNP6usotUhYbJIUMmQb/GGrAxpRljVycDBuc1hKM2LclX8/7H9nFfB+82Cd45T2+mcspcSRmu4F);strokeColor=none;spacingTop=-3;spacingBottom=-3;spacingLeft=-3;spacingRight=-3;points=[];labelBackgroundColor=none;rounded=0;html=1;whiteSpace=wrap;" parent="uhzGf2CPpyKdWITM7k95-235" vertex="1">
                    <mxGeometry x="10" y="26" width="23" height="23" as="geometry"/>
                </mxCell>
                <mxCell id="uhzGf2CPpyKdWITM7k95-240" style="vsdxID=1726;fillColor=#76bc2d;gradientColor=none;shape=stencil(vVTBcoMgEP0aj+4AC4LnNP0PpkFlatVB26R/XxzUhkTsrbd19z3eY1c2w9PY6MFkjIyT69/N1V6mJsOXjDHbNcbZyUcZnjM8Vb0ztes/u0v4HvSMnKOP/ms+4RZ4jIHCmcXId8hwBTRkXgOhtd0dAQtQIiJQQtJwQYGyCI4IeHB+wUCqiCApsDReSuAPAhRkkSasdpNw7d581a1+Qo247bYcykVwgZQSVBm3RIHkCybXNzvmrp/0ZPsu1BcHrXa1yb1eXrW6jkrj1ZjhKb3fAQSiEvL7LUYQccs4B6rSBF4CoRHhwA4K4LEdr4c0TWB7/sWBfwWkiAXY4S9LjsHxvP1dCxaPXKptvqtlKOJ+SAEo/mvg9PmJbPL7Hf77kfvgd0VUtm3DhrmvP64UnwrrCM8/);strokeColor=none;spacingTop=-3;spacingBottom=-3;spacingLeft=-3;spacingRight=-3;points=[];labelBackgroundColor=none;rounded=0;html=1;whiteSpace=wrap;" parent="uhzGf2CPpyKdWITM7k95-235" vertex="1">
                    <mxGeometry x="11" y="32" width="21" height="13" as="geometry"/>
                </mxCell>
                <UserObject label="&lt;div style=&quot;font-size: 1px&quot;&gt;&lt;font style=&quot;font-size:25.4px;font-family:Segoe UI Semibold;color:#000000;direction:ltr;letter-spacing:0px;line-height:120%;opacity:1&quot;&gt;Role&lt;br/&gt;&lt;/font&gt;&lt;font style=&quot;font-size:25.4px;font-family:Segoe UI Semibold;color:#000000;direction:ltr;letter-spacing:0px;line-height:120%;opacity:1&quot;&gt;E&lt;/font&gt;&lt;font style=&quot;font-size:25.4px;font-family:Segoe UI Semibold;color:#000000;direction:ltr;letter-spacing:0px;line-height:120%;opacity:1&quot;&gt;ntitlement&lt;/font&gt;&lt;font style=&quot;font-size:25.4px;font-family:Segoe UI Semibold;color:#000000;direction:ltr;letter-spacing:0px;line-height:120%;opacity:1&quot;&gt;&lt;br/&gt;&lt;/font&gt;&lt;/div&gt;" tags="Background" id="uhzGf2CPpyKdWITM7k95-241">
                    <mxCell style="verticalAlign=middle;align=center;overflow=width;vsdxID=1727;fillColor=none;gradientColor=none;shape=stencil(nZBLDoAgDERP0z3SIyjew0SURgSD+Lu9kMZoXLhwN9O+tukAlrNpJg1SzDH4QW/URgNYgZTkjA4UkwJUgGXng+6DX1zLfmoymdXo17xh5zmRJ6Q42BWCfc2oJfdAr+Yv+AP9Cb7OJ3H/2JG1HNGz/84klThPVCc=);strokeColor=none;points=[];labelBackgroundColor=none;rounded=0;html=1;whiteSpace=wrap;" parent="1" vertex="1">
                        <mxGeometry x="315" y="865" width="160" height="63" as="geometry"/>
                    </mxCell>
                </UserObject>
                <UserObject label="&lt;div style=&quot;font-size: 1px&quot;&gt;&lt;font style=&quot;font-size:25.4px;font-family:Segoe UI Semibold;color:#000000;direction:ltr;letter-spacing:0px;line-height:120%;opacity:1&quot;&gt;Policy &lt;/font&gt;&lt;font style=&quot;font-size:25.4px;font-family:Segoe UI Semibold;color:#000000;direction:ltr;letter-spacing:0px;line-height:120%;opacity:1&quot;&gt;&lt;br/&gt;&lt;/font&gt;&lt;font style=&quot;font-size:25.4px;font-family:Segoe UI Semibold;color:#000000;direction:ltr;letter-spacing:0px;line-height:120%;opacity:1&quot;&gt;A&lt;/font&gt;&lt;font style=&quot;font-size:25.4px;font-family:Segoe UI Semibold;color:#000000;direction:ltr;letter-spacing:0px;line-height:120%;opacity:1&quot;&gt;ssignment&lt;br/&gt;&lt;/font&gt;&lt;/div&gt;" tags="Background" id="uhzGf2CPpyKdWITM7k95-242">
                    <mxCell style="verticalAlign=middle;align=center;overflow=width;vsdxID=1728;fillColor=none;gradientColor=none;shape=stencil(nZBLDoAgDERP0z3SIyjew0SURgSD+Lu9kMZoXLhwN9O+tukAlrNpJg1SzDH4QW/URgNYgZTkjA4UkwJUgGXng+6DX1zLfmoymdXo17xh5zmRJ6Q42BWCfc2oJfdAr+Yv+AP9Cb7OJ3H/2JG1HNGz/84klThPVCc=);strokeColor=none;points=[];labelBackgroundColor=none;rounded=0;html=1;whiteSpace=wrap;" parent="1" vertex="1">
                        <mxGeometry x="551" y="865" width="164" height="63" as="geometry"/>
                    </mxCell>
                </UserObject>
                <UserObject label="&lt;div style=&quot;font-size: 1px&quot;&gt;&lt;font style=&quot;font-size:25.4px;font-family:Segoe UI Semibold;color:#000000;direction:ltr;letter-spacing:0px;line-height:120%;opacity:1&quot;&gt;Network&lt;br/&gt;Watcher&lt;br/&gt;&lt;/font&gt;&lt;/div&gt;" tags="Background" id="uhzGf2CPpyKdWITM7k95-243">
                    <mxCell style="verticalAlign=middle;align=center;overflow=width;vsdxID=1729;fillColor=none;gradientColor=none;shape=stencil(nZBLDoAgDERP0z3SIyjew0SURgSD+Lu9kMZoXLhwN9O+tukAlrNpJg1SzDH4QW/URgNYgZTkjA4UkwJUgGXng+6DX1zLfmoymdXo17xh5zmRJ6Q42BWCfc2oJfdAr+Yv+AP9Cb7OJ3H/2JG1HNGz/84klThPVCc=);strokeColor=none;points=[];labelBackgroundColor=none;rounded=0;html=1;whiteSpace=wrap;" parent="1" vertex="1">
                        <mxGeometry x="791" y="865" width="152" height="63" as="geometry"/>
                    </mxCell>
                </UserObject>
                <UserObject label="&lt;div style=&quot;font-size: 1px&quot;&gt;&lt;font style=&quot;font-size:25.4px;font-family:Segoe UI Semibold;color:#000000;direction:ltr;letter-spacing:0px;line-height:120%;opacity:1&quot;&gt;Security&lt;br/&gt;Center&lt;br/&gt;&lt;/font&gt;&lt;/div&gt;" tags="Background" id="uhzGf2CPpyKdWITM7k95-244">
                    <mxCell style="verticalAlign=middle;align=center;overflow=width;vsdxID=1730;fillColor=none;gradientColor=none;shape=stencil(nZBLDoAgDERP0z3SIyjew0SURgSD+Lu9kMZoXLhwN9O+tukAlrNpJg1SzDH4QW/URgNYgZTkjA4UkwJUgGXng+6DX1zLfmoymdXo17xh5zmRJ6Q42BWCfc2oJfdAr+Yv+AP9Cb7OJ3H/2JG1HNGz/84klThPVCc=);strokeColor=none;points=[];labelBackgroundColor=none;rounded=0;html=1;whiteSpace=wrap;" parent="1" vertex="1">
                        <mxGeometry x="1024" y="865" width="152" height="63" as="geometry"/>
                    </mxCell>
                </UserObject>
                <UserObject label="" tags="Background" id="uhzGf2CPpyKdWITM7k95-245">
                    <mxCell style="vsdxID=1731;fillColor=none;gradientColor=none;strokeColor=none;spacingTop=-3;spacingBottom=-3;spacingLeft=-3;spacingRight=-3;points=[];labelBackgroundColor=none;rounded=0;html=1;whiteSpace=wrap;" parent="1" vertex="1">
                        <mxGeometry x="612" y="793" width="63" height="67" as="geometry"/>
                    </mxCell>
                </UserObject>
                <mxCell id="uhzGf2CPpyKdWITM7k95-246" style="vsdxID=1732;fillColor=#198ab3;gradientColor=none;shape=stencil(vVHLDsIgEPwajiQI6RfU+h8bu22JCGRB2/69kG1iazx58DazM/vIjjBtmiCi0CplCjecbZ8nYc5Ca+snJJsLEqYTph0C4Ujh4XvmEaqzont41gkL96naodXKrGF6YSfQtUi0OXXDVlqPfJNP6usotUhYbJIUMmQb/GGrAxpRljVycDBuc1hKM2LclX8/7H9nFfB+82Cd45T2+mcspcSRmu4F);strokeColor=none;spacingTop=-3;spacingBottom=-3;spacingLeft=-3;spacingRight=-3;points=[];labelBackgroundColor=none;rounded=0;html=1;whiteSpace=wrap;" parent="uhzGf2CPpyKdWITM7k95-245" vertex="1">
                    <mxGeometry x="19" y="22" width="20" height="20" as="geometry"/>
                </mxCell>
                <mxCell id="uhzGf2CPpyKdWITM7k95-247" style="vsdxID=1733;fillColor=#32bedd;gradientColor=none;shape=stencil(vVHLDsIgEPwajiQI6RfU+h8bu22JCGRB2/69kG1iazx58DazM/vIjjBtmiCi0CplCjecbZ8nYc5Ca+snJJsLEqYTph0C4Ujh4XvmEaqzont41gkL96naodXKrGF6YSfQtUi0OXXDVlqPfJNP6usotUhYbJIUMmQb/GGrAxpRljVycDBuc1hKM2LclX8/7H9nFfB+82Cd45T2+mcspcSRmu4F);strokeColor=none;spacingTop=-3;spacingBottom=-3;spacingLeft=-3;spacingRight=-3;points=[];labelBackgroundColor=none;rounded=0;html=1;whiteSpace=wrap;" parent="uhzGf2CPpyKdWITM7k95-245" vertex="1">
                    <mxGeometry x="53" y="12" width="10" height="10" as="geometry"/>
                </mxCell>
                <mxCell id="uhzGf2CPpyKdWITM7k95-248" style="vsdxID=1734;fillColor=#32bedd;gradientColor=none;shape=stencil(vVHLDsIgEPwajiQI6RfU+h8bu22JCGRB2/69kG1iazx58DazM/vIjjBtmiCi0CplCjecbZ8nYc5Ca+snJJsLEqYTph0C4Ujh4XvmEaqzont41gkL96naodXKrGF6YSfQtUi0OXXDVlqPfJNP6usotUhYbJIUMmQb/GGrAxpRljVycDBuc1hKM2LclX8/7H9nFfB+82Cd45T2+mcspcSRmu4F);strokeColor=none;spacingTop=-3;spacingBottom=-3;spacingLeft=-3;spacingRight=-3;points=[];labelBackgroundColor=none;rounded=0;html=1;whiteSpace=wrap;" parent="uhzGf2CPpyKdWITM7k95-245" vertex="1">
                    <mxGeometry x="53" y="28" width="10" height="10" as="geometry"/>
                </mxCell>
                <mxCell id="uhzGf2CPpyKdWITM7k95-249" style="vsdxID=1735;fillColor=#32bedd;gradientColor=none;shape=stencil(vVHLDsIgEPwajiQI6RfU+h8bu22JCGRB2/69kG1iazx58DazM/vIjjBtmiCi0CplCjecbZ8nYc5Ca+snJJsLEqYTph0C4Ujh4XvmEaqzont41gkL96naodXKrGF6YSfQtUi0OXXDVlqPfJNP6usotUhYbJIUMmQb/GGrAxpRljVycDBuc1hKM2LclX8/7H9nFfB+82Cd45T2+mcspcSRmu4F);strokeColor=none;spacingTop=-3;spacingBottom=-3;spacingLeft=-3;spacingRight=-3;points=[];labelBackgroundColor=none;rounded=0;html=1;whiteSpace=wrap;" parent="uhzGf2CPpyKdWITM7k95-245" vertex="1">
                    <mxGeometry x="53" y="45" width="10" height="10" as="geometry"/>
                </mxCell>
                <mxCell id="uhzGf2CPpyKdWITM7k95-250" style="vsdxID=1736;fillColor=#50e6ff;gradientColor=none;shape=stencil(vVHLDsIgEPwajiQI6RfU+h8bu22JCGRB2/69kG1iazx58DazM/vIjjBtmiCi0CplCjecbZ8nYc5Ca+snJJsLEqYTph0C4Ujh4XvmEaqzont41gkL96naodXKrGF6YSfQtUi0OXXDVlqPfJNP6usotUhYbJIUMmQb/GGrAxpRljVycDBuc1hKM2LclX8/7H9nFfB+82Cd45T2+mcspcSRmu4F);strokeColor=none;spacingTop=-3;spacingBottom=-3;spacingLeft=-3;spacingRight=-3;points=[];labelBackgroundColor=none;rounded=0;html=1;whiteSpace=wrap;" parent="uhzGf2CPpyKdWITM7k95-245" vertex="1">
                    <mxGeometry x="41" y="20" width="10" height="10" as="geometry"/>
                </mxCell>
                <mxCell id="uhzGf2CPpyKdWITM7k95-251" style="vsdxID=1737;fillColor=#50e6ff;gradientColor=none;shape=stencil(vVHLDsIgEPwajiQI6RfU+h8bu22JCGRB2/69kG1iazx58DazM/vIjjBtmiCi0CplCjecbZ8nYc5Ca+snJJsLEqYTph0C4Ujh4XvmEaqzont41gkL96naodXKrGF6YSfQtUi0OXXDVlqPfJNP6usotUhYbJIUMmQb/GGrAxpRljVycDBuc1hKM2LclX8/7H9nFfB+82Cd45T2+mcspcSRmu4F);strokeColor=none;spacingTop=-3;spacingBottom=-3;spacingLeft=-3;spacingRight=-3;points=[];labelBackgroundColor=none;rounded=0;html=1;whiteSpace=wrap;" parent="uhzGf2CPpyKdWITM7k95-245" vertex="1">
                    <mxGeometry x="41" y="37" width="10" height="10" as="geometry"/>
                </mxCell>
                <mxCell id="uhzGf2CPpyKdWITM7k95-252" style="vsdxID=1738;fillColor=#949494;gradientColor=none;shape=stencil(tVTbboMwDP0aHrESm0t47rr/iNoA0RigQFf29wtLUAmIbdK2t8Q+x5fjxBGdhlr2KkI2jKZ7UXd9HeuIniJE3dbK6NGeIjpHdCo7oyrT3dqru/dyRs6n1+5tjjA5HufAcWYhe/cWxj7vzw4uzcX6zAIHUTi08fAEMuEsj4iCgoiFgCTxmFhOeohNN8pRd63zu3yskaZSsc0Xl42sAtdwV6pfmfm6wka3q4bSHPIwPSEgrQmXm3EScE8RQJmn8C2HTei7yIEvKG8SGaRevIn2KNqifi5pEUrqR7J0JBAS/FNB2bGg2+SZfTH0q3aKAlgaxLRDY/R/DW0Hvi6A7yvA/bPAINkybEsSPBw2g1wca8lA5OEkOWTJF/gQTIDH2G9/sj08tkCpm8YtkbV/uzWsyW0cOn8A);strokeColor=none;spacingTop=-3;spacingBottom=-3;spacingLeft=-3;spacingRight=-3;points=[];labelBackgroundColor=none;rounded=0;html=1;whiteSpace=wrap;" parent="uhzGf2CPpyKdWITM7k95-245" vertex="1">
                    <mxGeometry width="50" height="20" as="geometry"/>
                </mxCell>
                <mxCell id="uhzGf2CPpyKdWITM7k95-253" style="vsdxID=1739;fillColor=#949494;gradientColor=none;shape=stencil(vZTBcoMgEIafhqM7wAaRc5q+B5OgMrXiIG3s2weL04gzpod2clv//XeXD10JHsdWD4ZwOgbv3szVXkJL8IVwbvvWeBtiRPBE8Fg7bxrvPvpLeh707Jyjd/c5d5hSneIgca7i9CspFLD8Fl6Tv7P9ys+BZe4Sgcq1XftzzPrFXv5090tBBVQlZbHQnX50KvRkx8K7oIN1febutG9MEWcVdaebLDVejRlWMtuHyUcrBRXfR0GQKkc5gCgzlO3l3Dv+Fwzdh1ESZD4eD8AeAMXjb4AECJYBMZpfEVcg8FlA2+ECWPUnmgff+jPez6+bFoP7mta269KWr/PbtY5S+iXg6QY=);strokeColor=none;spacingTop=-3;spacingBottom=-3;spacingLeft=-3;spacingRight=-3;points=[];labelBackgroundColor=none;rounded=0;html=1;whiteSpace=wrap;" parent="uhzGf2CPpyKdWITM7k95-245" vertex="1">
                    <mxGeometry x="29" y="50" width="20" height="17" as="geometry"/>
                </mxCell>
                <mxCell id="uhzGf2CPpyKdWITM7k95-254" style="vsdxID=1740;fillColor=#B3B3B3;gradientColor=none;shape=stencil(vZTNcoQgDMefhqMZCKJw3m7fg+miMrXqoO3aty8W2xV3dHvoeAv5+IefxBB+6ivdGYK0H1z7aq72MlSEPxFE21TG2cFbhJ8JPxWtM6Vr35tLOHd6ypyst/ZjUhhDHaN0qkH6Gc4yh4x/e55DunYvPurm9BQohnw3FyBwETxzipKA2YYmHRM92j5x7aAH2zYhPt+g1q40ie+XFLUuo1B/NaZbuNnyhrVtFkBIATFqn1HIxTYSghIxEoOcR0hMQsYiTaGAyaOQ7tv7Dyq3iTiIFREClQ+IMsjTo4AoxL3pHotco/w874YY+x3RfwKhfwfJBMh0Dwb5etSkih8GhIwlc0jVUTz+3+Uqaq8UqH0idke0GrXVhrkpHgD0cL1547YaC1vXYbMu4+tV6l1hDfPzFw==);strokeColor=none;spacingTop=-3;spacingBottom=-3;spacingLeft=-3;spacingRight=-3;points=[];labelBackgroundColor=none;rounded=0;html=1;whiteSpace=wrap;" parent="uhzGf2CPpyKdWITM7k95-245" vertex="1">
                    <mxGeometry y="16" width="29" height="50" as="geometry"/>
                </mxCell>
                <UserObject label="" tags="Container" id="uhzGf2CPpyKdWITM7k95-255">
                    <mxCell style="vsdxID=1674;edgeStyle=none;startArrow=none;endArrow=block;startSize=9;endSize=9;strokeWidth=3;spacingTop=0;spacingBottom=0;spacingLeft=0;spacingRight=0;verticalAlign=middle;html=1;labelBackgroundColor=#f2f2f2;rounded=1;exitX=0;exitY=0.5;exitDx=0;exitDy=0;exitPerimeter=0;entryX=0;entryY=0.4111111111111111;entryDx=0;entryDy=0;entryPerimeter=0;strokeColor=#121212;" parent="1" source="uhzGf2CPpyKdWITM7k95-189" target="uhzGf2CPpyKdWITM7k95-204" edge="1">
                        <mxGeometry relative="1" as="geometry">
                            <Array as="points">
                                <mxPoint x="232.98" y="687"/>
                                <mxPoint x="232.98" y="1097.01"/>
                            </Array>
                        </mxGeometry>
                    </mxCell>
                </UserObject>
                <mxCell id="uhzGf2CPpyKdWITM7k95-256" value="&lt;div style=&quot;font-size: 1px&quot;&gt;&lt;font style=&quot;font-size:25.4px;font-family:Segoe UI Semibold;color:#000000;direction:ltr;letter-spacing:0px;line-height:120%;opacity:1&quot;&gt;&lt;b&gt;Integration&lt;br/&gt;&lt;/b&gt;&lt;/font&gt;&lt;/div&gt;" style="text;vsdxID=1674;edgeStyle=none;startArrow=none;endArrow=block;startSize=9;endSize=9;strokeWidth=3;spacingTop=0;spacingBottom=0;spacingLeft=0;spacingRight=0;verticalAlign=middle;html=1;labelBackgroundColor=#f2f2f2;rounded=1;align=center;overflow=width;fillColor=none;strokeColor=none;gradientColor=none;whiteSpace=wrap;rotation=270.05;;html=1;" parent="uhzGf2CPpyKdWITM7k95-255" vertex="1">
                    <mxGeometry width="146.94" height="41.77" relative="1" as="geometry">
                        <mxPoint x="-74.47" y="-55.885000000000005" as="offset"/>
                    </mxGeometry>
                </mxCell>
                <UserObject label="&lt;div style=&quot;font-size: 1px&quot;&gt;&lt;p style=&quot;text-align:left;margin-left:20;margin-right:0;margin-top:8px;margin-bottom:0px;text-indent:0;vertical-align:middle;direction:ltr;&quot;&gt;&lt;font style=&quot;font-size:25.4px;font-family:Segoe UI Semibold;color:#595959;direction:ltr;letter-spacing:0px;line-height:120%;opacity:1&quot;&gt;Azure Storage&lt;/font&gt;&lt;font style=&quot;font-size:25.4px;font-family:Segoe UI Semibold;color:#595959;direction:ltr;letter-spacing:0px;line-height:120%;opacity:1&quot;&gt; &lt;/font&gt;&lt;font style=&quot;font-size:25.4px;font-family:Segoe UI Semibold;color:#595959;direction:ltr;letter-spacing:0px;line-height:120%;opacity:1&quot;&gt;Account&lt;br&gt;&lt;/font&gt;&lt;/p&gt;&lt;/div&gt;" tags="Background" id="uhzGf2CPpyKdWITM7k95-425">
                    <mxCell style="verticalAlign=middle;align=left;overflow=width;vsdxID=1327;fillColor=none;gradientColor=none;shape=stencil(nZBLDoAgDERP0z3SIyjew0SURgSD+Lu9kMZoXLhwN9O+tukAlrNpJg1SzDH4QW/URgNYgZTkjA4UkwJUgGXng+6DX1zLfmoymdXo17xh5zmRJ6Q42BWCfc2oJfdAr+Yv+AP9Cb7OJ3H/2JG1HNGz/84klThPVCc=);strokeColor=none;spacingTop=-3;spacingBottom=-3;spacingLeft=-3;spacingRight=-3;points=[];labelBackgroundColor=none;rounded=0;html=1;whiteSpace=wrap;fontStyle=0" parent="1" vertex="1">
                        <mxGeometry x="1151" y="691" width="220" height="75" as="geometry"/>
                    </mxCell>
                </UserObject>
                <UserObject label="" tags="Background" id="uhzGf2CPpyKdWITM7k95-426">
                    <mxCell style="vsdxID=1328;fillColor=none;gradientColor=none;strokeColor=none;spacingTop=-3;spacingBottom=-3;spacingLeft=-3;spacingRight=-3;points=[];labelBackgroundColor=none;rounded=0;html=1;whiteSpace=wrap;fontStyle=0" parent="1" vertex="1">
                        <mxGeometry x="1072" y="608" width="54" height="66" as="geometry"/>
                    </mxCell>
                </UserObject>
                <mxCell id="uhzGf2CPpyKdWITM7k95-427" style="vsdxID=1329;fillColor=none;gradientColor=none;strokeColor=none;spacingTop=-3;spacingBottom=-3;spacingLeft=-3;spacingRight=-3;points=[];labelBackgroundColor=none;rounded=0;html=1;whiteSpace=wrap;fontStyle=0" parent="uhzGf2CPpyKdWITM7k95-426" vertex="1">
                    <mxGeometry width="54" height="66" as="geometry"/>
                </mxCell>
                <mxCell id="uhzGf2CPpyKdWITM7k95-428" style="vsdxID=1330;fillColor=#1b93eb;gradientColor=none;shape=stencil(vZRRb4QgDMc/jY8SoALH8+32PcgdKpnTC3o79+2Hg5tWM5cs2d7g39KWX5tmcOxrc7UZp/3guxd7d5ehzuAp49y1tfVuCKcMThkcy87byne39hLvVzN5TqfX7m2KMMZ3jNLpDafv8V5IIvWn8hzdzzcf/dn6QRIUECGjNPIoSUpEckqKFoQnH4iKYERDckqS1kSyZW7jz8HsU6lA6CE+8KlYTkSRoqbqD0QW6D9zTDrmZnR97rvBDK5roz19pjG+snnIl5eNqZCpv1t7Xchsjw5oojTms/g6R4EfbCaAmA3FXDY9aVy7aCFuICsIiD2IrNhA1Ahi4KxwSEaU/EeGxVwA+6qAMQyRK0yRrsZrxZDuZVSA01GcSop5VPm2oMf0ynn2YA3ut70I46vYN/39k2bg0fpxO4TDvFlK1zRxMS3t600UpLjF4PQB);strokeColor=none;strokeWidth=48;spacingTop=-3;spacingBottom=-3;spacingLeft=-3;spacingRight=-3;points=[];labelBackgroundColor=none;rounded=0;html=1;whiteSpace=wrap;fontStyle=0" parent="uhzGf2CPpyKdWITM7k95-427" vertex="1">
                    <mxGeometry width="54" height="66" as="geometry"/>
                </mxCell>
                <mxCell id="uhzGf2CPpyKdWITM7k95-429" style="vsdxID=1331;fillColor=#000000;gradientColor=#6bb9f2;shape=stencil(vZTNcoIwEMefhiM7yS4Ecrb6HhlFzZSCE7DSt29ogma1taf2Fv77/VtmM1oNR3NqMhTD6PrX5mJ34zGjlwzRdsfG2dG/MlpntNr3rjm4/tztwvfJzJ7z661/nzNMIU5r0DhHofgISqGg/hI2wX97diFAPkZEqSJQOkgTBkkJwMUrSroErKIXBamUoGT0omt6hWl947be7GK/BLIMAS72i1AuWeMANRAf6ZZTTLmZ7JC7fjSj7btgF8HWGndocl8v37fmwEzDpWlOiSyfESINFQeUjo4s8QInRUjcg77fS2u7ZI+CDSwLqPQziHGABKIiBhFB1zylhOo/GRLUxCH6DoTkEFFBUXGQgkMs/N+qOEjxrK7fQ1HyuoLXVOraxlLTd3b/Z2sFuuR1bwR/WsrDThbgMYF42DLWf7cS/oP9fij843Zl9rZtw5FK7fdXyUvhotH6Ew==);strokeColor=none;strokeWidth=48;spacingTop=-3;spacingBottom=-3;spacingLeft=-3;spacingRight=-3;points=[];labelBackgroundColor=none;rounded=0;html=1;whiteSpace=wrap;fontStyle=0" parent="uhzGf2CPpyKdWITM7k95-427" vertex="1">
                    <mxGeometry x="2" y="2" width="49" height="60" as="geometry"/>
                </mxCell>
                <mxCell id="uhzGf2CPpyKdWITM7k95-430" style="vsdxID=1332;fillColor=#c3f1ff;gradientColor=none;shape=stencil(xZTbcoMgEIafhkt3OIjCdZq+B9OgMrXioGns2xcK00rSpL2Ik7tlD/DtzvIjtps6NWpE8TQ7+6pP5jB3iD0hSs3QaWdmbyG2R2zXWKdbZ4/DIZ5HFTKD9Wbfww1LrOM4lFD8EY8lB0K+PM8xW7kXH3Upm9bAy1jgUgXngGV0paS6BsKzWyUFljxLoRYzFc7OajZ2iPHE0CvX6sK/WDS9arPQdNJ6XLlvMJZQyRxRAhMZoSAgyoyQYHxXPrzm682wmrjkEGK/PH6tHXHRTp218w2fEoQEUW3XTs7HMdCzeXse4PlOPBDwHwMsoRaPWgcigFR3XQdKQWz9/24QBo1glxqRM16VnU0EIp/4X5LnjR+1bEzfR7Fdx8/V1buiMrP9Jw==);strokeColor=none;strokeWidth=48;spacingTop=-3;spacingBottom=-3;spacingLeft=-3;spacingRight=-3;points=[];labelBackgroundColor=none;rounded=0;html=1;whiteSpace=wrap;fontStyle=0" parent="uhzGf2CPpyKdWITM7k95-427" vertex="1">
                    <mxGeometry x="6" y="14" width="40" height="20" as="geometry"/>
                </mxCell>
                <mxCell id="uhzGf2CPpyKdWITM7k95-431" style="vsdxID=1333;fillColor=#FFFFFF;gradientColor=none;shape=stencil(vVHLDsIgEPwajiQI6RfU+h8bu22JCGRB2/69kG1iazx58DazM/vIjjBtmiCi0CplCjecbZ8nYc5Ca+snJJsLEqYTph0C4Ujh4XvmEaqzont41gkL96naodXKrGF6YSfQtUi0OXXDVlqPfJNP6usotUhYbJIUMmQb/GGrAxpRljVycDBuc1hKM2LclX8/7H9nFfB+82Cd45T2+mcspcSRmu4F);strokeColor=none;strokeWidth=48;spacingTop=-3;spacingBottom=-3;spacingLeft=-3;spacingRight=-3;points=[];labelBackgroundColor=none;rounded=0;html=1;whiteSpace=wrap;fontStyle=0" parent="uhzGf2CPpyKdWITM7k95-427" vertex="1">
                    <mxGeometry x="19" y="27" width="14" height="14" as="geometry"/>
                </mxCell>
                <UserObject label="&lt;div style=&quot;font-size: 1px&quot;&gt;&lt;p style=&quot;text-align:left;margin-left:20;margin-right:0;margin-top:8px;margin-bottom:0px;text-indent:0;vertical-align:middle;direction:ltr;&quot;&gt;&lt;font style=&quot;font-size:25.4px;font-family:Segoe UI Semibold;color:#595959;direction:ltr;letter-spacing:0px;line-height:120%;opacity:1&quot;&gt;Azure &lt;/font&gt;&lt;font style=&quot;font-size:25.4px;font-family:Segoe UI Semibold;color:#595959;direction:ltr;letter-spacing:0px;line-height:120%;opacity:1&quot;&gt;Sentinel&lt;br&gt;&lt;/font&gt;&lt;/p&gt;&lt;/div&gt;" tags="Background" id="uhzGf2CPpyKdWITM7k95-432">
                    <mxCell style="verticalAlign=middle;align=left;overflow=width;vsdxID=1334;fillColor=none;gradientColor=none;shape=stencil(nZBLDoAgDERP0z3SIyjew0SURgSD+Lu9kMZoXLhwN9O+tukAlrNpJg1SzDH4QW/URgNYgZTkjA4UkwJUgGXng+6DX1zLfmoymdXo17xh5zmRJ6Q42BWCfc2oJfdAr+Yv+AP9Cb7OJ3H/2JG1HNGz/84klThPVCc=);strokeColor=none;spacingTop=-3;spacingBottom=-3;spacingLeft=-3;spacingRight=-3;points=[];labelBackgroundColor=none;rounded=0;html=1;whiteSpace=wrap;fontStyle=0" parent="1" vertex="1">
                        <mxGeometry x="1146.85" y="605" width="200" height="61" as="geometry"/>
                    </mxCell>
                </UserObject>
                <UserObject label="" tags="Background" id="uhzGf2CPpyKdWITM7k95-433">
                    <mxCell style="vsdxID=1335;fillColor=none;gradientColor=none;points=[];labelBackgroundColor=none;rounded=0;strokeColor=none;html=1;whiteSpace=wrap;fontStyle=0" parent="1" vertex="1">
                        <mxGeometry x="1066" y="517" width="63" height="56" as="geometry"/>
                    </mxCell>
                </UserObject>
                <mxCell id="uhzGf2CPpyKdWITM7k95-434" style="vsdxID=1336;fillColor=#76bc2d;gradientColor=none;shape=stencil(xZTNcoQgDMefhqMMH4Jy3m7fg+miMrXiIO1u375YaJVS9tCDvUHyJ/GXxAB6WgY5K0DQ4qx5Vld9cQOgD4AQPQ3KaudPgJ4BPXXGqt6a1+kS7rNclevpxbytEW7hHReQNOsrgt6DBX3eHoN41NNOTBFsaFks7ZP32CjGGDIexDaqMYFtG0xRRHxElkTksCZRUsmbXiprnHTaTPuEaJS2V5VPWHWj7BPXclVqzsy/8vgvTHFqCjm5ixTdeyTBEqQsKPNI/CikvKCCQtbeb1PeJZIg5X3HCB1FlE/oV/ISTy1yIJwANT5mqUoHIIkW1inSNiN/H7w86jbOB0DlNf3+lYuD1+RMCVJpO/3L2CVif9hWaqfHMWzkvf/nCvamsL7p+QM=);strokeColor=none;spacingTop=-3;spacingBottom=-3;spacingLeft=-3;spacingRight=-3;points=[];labelBackgroundColor=none;rounded=0;html=1;whiteSpace=wrap;fontStyle=0" parent="uhzGf2CPpyKdWITM7k95-433" vertex="1">
                    <mxGeometry width="63" height="56" as="geometry"/>
                </mxCell>
                <mxCell id="uhzGf2CPpyKdWITM7k95-435" style="vsdxID=1337;fillColor=#FFFFFF;gradientColor=none;fillOpacity=90;strokeOpacity=90;shape=stencil(vVfddtowDH6aXKJjS/7Ldde9R04bIGeMcAJdu7efWOwEOcNtN9hdkCV/0qc/U9HDcdsc2grV8TT039rX7vm0rehLhdjtt+3QnfiroseKHtb90G6G/mX/PP4+NGfN89f3/sf5hrfRzioIdLZC9XOUaA0u/JZ8HQ2a4YlPh2igDWg9GgzRwkGIkqjjLCgjLjVQ+6iyat6642roT82p6/fjsRrPds2waVeMt1rvmk3EG4+Or217WIiveYhLD53wsBT2p11UH3Bx1+0/x7pMEzlwKAxqAm3+jYRlmuZLb0WCuk5CCf6vYyoRdavaK8T0gTxl/acn76KBV2ALJKCdui2RoBGMZIGVtLjUEdB/q24loS34QjzGAXoZDyKQFfGYGmwtbg1qGkP3qNSnl2HMko5JCRBSmvTSA4ycqBR6FHiENPYoV4kCx8HSdXqI2auzdHvAIOhhV5wctxacvR87WUVy/dncR4XgZE1yDk2QXuq7Tps8h+SnJZRySPXEbsohcfvJJJ57OvFNC6Uk4Uz7wujinKGkKADpdwjiNra3LfLC2uQdTVkj8lLyXvjIBS33FukpsPsPFp6lIWPIpwXw5+FiwGTDEjWYxXCRs0U7qOubxlSsS6xBp2rSSw9iFc5jP9UlRzKNSVoopbok8FhCvzCJEhPAWwmOWUvw1pr2boLmyqgltjVpL13DZqQM3PKjACW45w1KGb4HjRL/UmserT6U8C+qWU/LKifecS4y5ucVPYevwToJv1jk2Rvw/c3PH/O7fd3tduOz//I8f+ezaPyPQI+/AA==);strokeColor=none;spacingTop=-3;spacingBottom=-3;spacingLeft=-3;spacingRight=-3;points=[];labelBackgroundColor=none;rounded=0;html=1;whiteSpace=wrap;fontStyle=0" parent="uhzGf2CPpyKdWITM7k95-433" vertex="1">
                    <mxGeometry x="21" y="7" width="21" height="43" as="geometry"/>
                </mxCell>
                <UserObject label="" tags="Background" id="uhzGf2CPpyKdWITM7k95-436">
                    <mxCell style="vsdxID=1338;fillColor=none;gradientColor=none;points=[];labelBackgroundColor=none;rounded=0;strokeColor=none;html=1;whiteSpace=wrap;fontStyle=0" parent="1" vertex="1">
                        <mxGeometry x="1057" y="425" width="86" height="60" as="geometry"/>
                    </mxCell>
                </UserObject>
                <mxCell id="uhzGf2CPpyKdWITM7k95-437" style="vsdxID=1339;fillColor=#0078d4;gradientColor=none;shape=stencil(vVTLcsIwDPyaHKOxpcSPM4X/8IABT9OEcUKBv29SmxS7zHAiN1taWevVo6BVfzQnWyDrB9992ovbDceCPgpE1x6td8N4Kmhd0GrfeXvw3bndhfvJTMjp9NV9Ty9cQxxnbIpBdgt3oUD+GjYBbfx2dPqIRoSaAt7HAOKgeDBFkGJQJ2+SAq4jpDRX15e+G8zgujb4I4PG+IMtx4TlvjGHxNVfrD39Mz+nqIB4RlGDFgnFmgNVCUe2GD8NTKb8Kg6MEn5IUIuEHwoQy2koQGGmoQSVapj1DQHni/GTgDk/BVWm4dh1aY3nXn8Hw+3Zh7ni9zrH3DxPjnMjqMj4hjmG4q8YiPssUYqJaRvXPkyzFID86Z+f6liBrlMZBWiVqCjlrGuEaA1SLlZpnJPNlca5rq922FsIpoq/2p/j4W/17l3ThM396M9X9WgKa57WPw==);strokeColor=none;spacingTop=-3;spacingBottom=-3;spacingLeft=-3;spacingRight=-3;points=[];labelBackgroundColor=none;rounded=0;html=1;whiteSpace=wrap;fontStyle=0" parent="uhzGf2CPpyKdWITM7k95-436" vertex="1">
                    <mxGeometry width="86" height="54" as="geometry"/>
                </mxCell>
                <mxCell id="uhzGf2CPpyKdWITM7k95-438" style="vsdxID=1340;fillColor=#50e6ff;gradientColor=none;shape=stencil(vVPbcoMgEP0aHmWAVdDnNPkPJkFlasVB0ti/r85iC7bpY9/2cpazy54lcJp7PRki2By8ezUPews9gRcihB17421YLQJnAqfWedN5dx9v6E96Q27Wm3vfXliwrmJbiWAf6KJ3QeT17hHKMVkzykWE8xTPFoFuU9NqR8QQSCpVRAGGONtJY6CWVJUps/bXNe1jj4qqBgt8bJMLqiA+GpkFlZCN8sWyFHqxc+Fd0MG6MWt80L4zxUpXtIPustT8MGZKwjxtcLBj8olqb//I/Wyc8sc4ssrGybdSKyr+a5YDs9wX+kQTnJZ1Lol04VEDvKHNvhyRCwcOMoRfdJg3+JdiV+Nb6K0dBryTNH88jDWERwXnTw==);strokeColor=none;spacingTop=-3;spacingBottom=-3;spacingLeft=-3;spacingRight=-3;points=[];labelBackgroundColor=none;rounded=0;html=1;whiteSpace=wrap;fontStyle=0" parent="uhzGf2CPpyKdWITM7k95-436" vertex="1">
                    <mxGeometry x="23.763157894736842" y="27" width="61.10526315789473" height="33" as="geometry"/>
                </mxCell>
                <mxCell id="uhzGf2CPpyKdWITM7k95-439" style="vsdxID=1341;fillColor=#FFFFFF;gradientColor=none;shape=stencil(xVTbcoMgEP0aHt1BFgM8p+l/MAkqUysOmsb8fbSgkXTSmT5k+raXs5zD7gLBfV/rzhBG+8G7D3Oxp6Em+EYYs21tvB0mi+CB4L503lTendtT8Ds9I2fr033NJ4yhjoFUcxGj1xDIKf323wNa++OU8ytaRLSPcA4KQyRCKEhMDlQSeBEhmR5tn3k36MG6NhaEXKN9ZbKJLisbXSWp/mJMtwnnvwrER4GSpQJTdRxE/jp1x7MP3c5jEnaRPgZQAOWRn8U7cKAyolhCNWJwCwp0aTJuEU9YRQFKpLw05dwMaeHcKsN0N1bWe/eeTYP/mEa6LkoBY/+5L1KkCou1+YtCAfkuUbi24RX6Gtv+4XlOxv1ll7ZpwsewzT/+BFMo/CJ4uAE=);strokeColor=none;spacingTop=-3;spacingBottom=-3;spacingLeft=-3;spacingRight=-3;points=[];labelBackgroundColor=none;rounded=0;html=1;whiteSpace=wrap;fontStyle=0" parent="uhzGf2CPpyKdWITM7k95-436" vertex="1">
                    <mxGeometry x="27.157894736842103" y="30" width="54.315789473684205" height="27" as="geometry"/>
                </mxCell>
                <mxCell id="uhzGf2CPpyKdWITM7k95-440" style="vsdxID=1342;fillColor=#9cebff;gradientColor=none;shape=stencil(rVLREoIgEPwaHmVQVPS57D+YRGUicQ5K+/swtKLG6aW3u929O5Y7RHem44NACTEW9EmMsrYdonuUJLLvBEjrIkQrRHeNBtGCvvS1zwc+K+forK9zh8nXxYTMNQm5+TylmOUP5ODlHI6OhVWes5UnsJTELMaFhxZV2HLJpohP0kSgLbdS9wGnOLQicqOiRvE2oMwoxPAFL49TshdbY1mJ82zbSZlhRkMjZYEJDYykOc6KoOvzv/5kJ96283M1LnittZFK+at45z/PwEH+hGh1Bw==);strokeColor=none;spacingTop=-3;spacingBottom=-3;spacingLeft=-3;spacingRight=-3;points=[];labelBackgroundColor=none;rounded=0;html=1;whiteSpace=wrap;fontStyle=0" parent="uhzGf2CPpyKdWITM7k95-436" vertex="1">
                    <mxGeometry x="55.44736842105263" y="33" width="12.447368421052632" height="11" as="geometry"/>
                </mxCell>
                <mxCell id="uhzGf2CPpyKdWITM7k95-441" style="vsdxID=1343;fillColor=#50e6ff;gradientColor=none;shape=stencil(rVLLDoMgEPwajhIePuq5tf9BKiopFbPSav++WDQVE9tLb8vM7C4Dg/ixb0QnESO9BXOVgyptg/gJMabaRoKyrkK8QPxYGZA1mHtb+nMnJuVU3cxjmjD6PjJ1MPL0p5jjNH4jZy/Wql2JE0fzoIESspYLuDgOZnlOce7VMMvzGHPmoTEcsAzMcnxYFJEYVR+BscIq0wb31QJqGbl1UaVFHVD9IGW3gum+n+3yL15omuEsDt3QjGGaBHb2nvNfZsi+mR8/6YpPBiqltY/Qmt9mxkE+b7x4AQ==);strokeColor=none;spacingTop=-3;spacingBottom=-3;spacingLeft=-3;spacingRight=-3;points=[];labelBackgroundColor=none;rounded=0;html=1;whiteSpace=wrap;fontStyle=0" parent="uhzGf2CPpyKdWITM7k95-436" vertex="1">
                    <mxGeometry x="39.60526315789473" y="33" width="12.447368421052632" height="11" as="geometry"/>
                </mxCell>
                <mxCell id="uhzGf2CPpyKdWITM7k95-442" style="vsdxID=1344;fillColor=#9cebff;gradientColor=none;shape=stencil(rVLLEoIwDPyaHumkjYicffxHRwt0rJQJVfHvLZZR6uh48ZZkN9nsJAzXfaM6zST0ntxRX83BNww3TErTNpqMDxHDLcN15UjX5M7tIeadGpljdHKXccIQ+2DskHCLWY58gY/KLpIV7QNKE1mA5BBxoKmlXHCxiqWJJYHLIhkrYJIZMjWYPiPnlTeuTVawimqdBcGssqpOoP6qdTcri/mK1rQzP0+pN+nPflYFxzL1IwrJyyIxlC95jsnU/9qB73Z+nCcEr8NWxtr4F3P8/RFCKT4Rbu8=);strokeColor=none;spacingTop=-3;spacingBottom=-3;spacingLeft=-3;spacingRight=-3;points=[];labelBackgroundColor=none;rounded=0;html=1;whiteSpace=wrap;fontStyle=0" parent="uhzGf2CPpyKdWITM7k95-436" vertex="1">
                    <mxGeometry x="64.5" y="40" width="12.447368421052632" height="12" as="geometry"/>
                </mxCell>
                <mxCell id="uhzGf2CPpyKdWITM7k95-443" style="vsdxID=1345;fillColor=#32bedd;gradientColor=none;shape=stencil(rVLLDsIgEPwajiUUrJWz1v8gSlsilmZBrX8vBKtF23gx4bCP2VkGBrGtbUUvESXWgTnJmzq6FrEdolR1rQTlfIRYhdi2NiAbMJfuGPNeBGSIzuYaGIY4lxMSZii5x7xgOKT+7CNcq24CXzG85skAmYIFHHwHRu7NCpd5RMMTnpcEF7E0TAlGutd9hkwMymZgnHDKdAlWC2hk5pdltRZN0rI3Kfuv8qyWko83+dg9L4ZQzHkqhheYlImY5ef8l6B8WdDPv/TB2we10jraaNr/9I0vRc+x6gE=);strokeColor=none;spacingTop=-3;spacingBottom=-3;spacingLeft=-3;spacingRight=-3;points=[];labelBackgroundColor=none;rounded=0;html=1;whiteSpace=wrap;fontStyle=0" parent="uhzGf2CPpyKdWITM7k95-436" vertex="1">
                    <mxGeometry x="31.684210526315788" y="40" width="12.447368421052632" height="12" as="geometry"/>
                </mxCell>
                <mxCell id="uhzGf2CPpyKdWITM7k95-444" style="vsdxID=1346;fillColor=#32bedd;gradientColor=none;shape=stencil(vVLRDoIwDPyaPbLAijCeFf9j0QGLk5EyFf/e4SAyjfpg4lt7d23X7gis+0Z0krC4t2gO8qL2tiGwIYyptpGorIsIlATWlUFZozm1e593YlSO0dGcxw6Dr0vieKxh8XXOKRR3ZOvlAneOxUle0BS8HucCThPuoUnDc8p50HQaMURiUH2ExgqrTBtwWmAtIzcsqrSoA6q/SNm9wNPztGoX24S7ZDldwXtxRnN42v1D6yKlWRLIgdE0/+1U76//h2N9/XoXPGxTKa2965b8s80c5C0K5Q0=);strokeColor=none;spacingTop=-3;spacingBottom=-3;spacingLeft=-3;spacingRight=-3;points=[];labelBackgroundColor=none;rounded=0;html=1;whiteSpace=wrap;fontStyle=0" parent="uhzGf2CPpyKdWITM7k95-436" vertex="1">
                    <mxGeometry x="56.57894736842105" y="44" width="15.842105263157894" height="7" as="geometry"/>
                </mxCell>
                <mxCell id="uhzGf2CPpyKdWITM7k95-445" style="vsdxID=1347;fillColor=#767676;gradientColor=none;shape=stencil(vVHLDsIgEPwajiQI6RfU+h8bu22JCGRB2/69kG1iazx58DazM/vIjjBtmiCi0CplCjecbZ8nYc5Ca+snJJsLEqYTph0C4Ujh4XvmEaqzont41gkL96naodXKrGF6YSfQtUi0OXXDVlqPfJNP6usotUhYbJIUMmQb/GGrAxpRljVycDBuc1hKM2LclX8/7H9nFfB+82Cd45T2+mcspcSRmu4F);strokeColor=none;spacingTop=-3;spacingBottom=-3;spacingLeft=-3;spacingRight=-3;points=[];labelBackgroundColor=none;rounded=0;html=1;whiteSpace=wrap;fontStyle=0" parent="uhzGf2CPpyKdWITM7k95-436" vertex="1">
                    <mxGeometry x="49.78947368421053" y="47" width="7.921052631578947" height="7" as="geometry"/>
                </mxCell>
                <UserObject label="&lt;div style=&quot;font-size: 1px&quot;&gt;&lt;p style=&quot;text-align:left;margin-left:20;margin-right:0;margin-top:8px;margin-bottom:0px;text-indent:0;vertical-align:middle;direction:ltr;&quot;&gt;&lt;font style=&quot;font-size:25.4px;font-family:Segoe UI Semibold;color:#595959;direction:ltr;letter-spacing:0px;line-height:120%;opacity:1&quot;&gt;Azure Monitor&lt;br&gt;&lt;/font&gt;&lt;/p&gt;&lt;/div&gt;" tags="Background" id="uhzGf2CPpyKdWITM7k95-446">
                    <mxCell style="verticalAlign=middle;align=left;overflow=width;vsdxID=1348;fillColor=none;gradientColor=none;shape=stencil(nZBLDoAgDERP0z3SIyjew0SURgSD+Lu9kMZoXLhwN9O+tukAlrNpJg1SzDH4QW/URgNYgZTkjA4UkwJUgGXng+6DX1zLfmoymdXo17xh5zmRJ6Q42BWCfc2oJfdAr+Yv+AP9Cb7OJ3H/2JG1HNGz/84klThPVCc=);strokeColor=none;spacingTop=-3;spacingBottom=-3;spacingLeft=-3;spacingRight=-3;points=[];labelBackgroundColor=none;rounded=0;html=1;whiteSpace=wrap;fontStyle=0" parent="1" vertex="1">
                        <mxGeometry x="1157" y="409" width="200" height="88" as="geometry"/>
                    </mxCell>
                </UserObject>
                <UserObject label="&lt;div style=&quot;font-size: 1px&quot;&gt;&lt;p style=&quot;text-align:left;margin-left:20;margin-right:0;margin-top:8px;margin-bottom:0px;text-indent:0;vertical-align:middle;direction:ltr;&quot;&gt;&lt;font style=&quot;font-size:25.4px;font-family:Segoe UI Semibold;color:#595959;direction:ltr;letter-spacing:0px;line-height:120%;opacity:1&quot;&gt;Azure Cost Management&lt;br&gt;&lt;/font&gt;&lt;/p&gt;&lt;/div&gt;" tags="Background" id="uhzGf2CPpyKdWITM7k95-447">
                    <mxCell style="verticalAlign=middle;align=left;overflow=width;vsdxID=1349;fillColor=none;gradientColor=none;shape=stencil(nZBLDoAgDERP0z3SIyjew0SURgSD+Lu9kMZoXLhwN9O+tukAlrNpJg1SzDH4QW/URgNYgZTkjA4UkwJUgGXng+6DX1zLfmoymdXo17xh5zmRJ6Q42BWCfc2oJfdAr+Yv+AP9Cb7OJ3H/2JG1HNGz/84klThPVCc=);strokeColor=none;spacingTop=-3;spacingBottom=-3;spacingLeft=-3;spacingRight=-3;points=[];labelBackgroundColor=none;rounded=0;html=1;whiteSpace=wrap;fontStyle=0" parent="1" vertex="1">
                        <mxGeometry x="1146.85" y="497" width="200" height="90" as="geometry"/>
                    </mxCell>
                </UserObject>
                <mxCell id="uhzGf2CPpyKdWITM7k95-448" value="" style="image;aspect=fixed;html=1;points=[];align=center;fontSize=12;image=img/lib/azure2/storage/Storage_Accounts.svg;fontStyle=0" parent="1" vertex="1">
                    <mxGeometry x="1061.85" y="702.5" width="65" height="52" as="geometry"/>
                </mxCell>
            </root>
        </mxGraphModel>
    </diagram>
</mxfile>